<svg width="110" height="35" viewBox="0 0 110 35" fill="none" xmlns="http://www.w3.org/2000/svg">
<path fill-rule="evenodd" clip-rule="evenodd" d="M8.48745 34.0178H11.0345V20.4107H8.48745V34.0178ZM17.8243 33.8137H20.1056V25.2285L29.7082 34.0178V20.6148H27.4333V29.0534L17.8243 20.4107V33.8137ZM34.9161 30.5182C36.1578 31.4856 37.6482 32.0448 39.246 32.0448C40.8023 32.0448 41.894 31.509 41.894 30.3258C41.894 29.2947 41.1977 28.8907 39.9784 28.4389L38.0043 27.7532C36.1844 27.1069 34.8003 26.1629 34.8003 23.9932C34.8003 21.6725 36.8955 20.4107 39.4012 20.4107C40.9362 20.4107 42.3352 20.7966 43.428 21.4801V23.7817C42.2916 22.9418 41.0478 22.3635 39.4501 22.3635C38.0745 22.3635 37.0465 22.877 37.0465 23.9475C37.0465 24.9149 37.6918 25.3018 38.8282 25.6909L41.0276 26.4627C43.1591 27.2121 44.1371 28.3741 44.1371 30.2854C44.1371 32.6901 42.0216 34.0178 39.246 34.0178C37.4217 34.0178 35.8708 33.5076 34.9161 32.8634V30.5182ZM50.0796 34.0178H52.6256V20.4107H50.0796V34.0178ZM64.5701 31.9587C67.4404 31.9587 68.9744 30.1175 68.9744 27.2111C68.9744 24.2834 67.4393 22.4486 64.5701 22.4486H61.7318V31.9587H64.5701ZM59.4143 20.4107H64.6552C68.6895 20.4107 71.2982 23.0683 71.2982 27.2111C71.2982 31.357 68.6895 34.0178 64.6552 34.0178H59.4143V20.4107ZM84.0315 20.4107V22.4486H77.869V25.7228H83.3958V27.7373H77.8679V31.9587H84.0315V34.0178H75.543V20.4107H84.0315ZM93.0696 26.5722H95.5965C97.0922 26.5722 97.9352 25.7515 97.9352 24.4897C97.9352 23.2278 97.0922 22.4061 95.5965 22.4061H93.0696V26.5732V26.5722ZM93.0696 28.4963V34.0178H90.8213V20.4107H95.639C98.386 20.4107 100.163 21.8256 100.163 24.4897C100.163 26.7678 99.1769 28.0764 97.0752 28.4123L101.856 34.0178H99.2981L94.6695 28.4974H93.0707L93.0696 28.4963ZM7.59767 7.00555C8.59376 6.64092 9.36979 5.54703 9.36979 4.04281C9.36979 1.53612 7.59767 0.237062 4.7625 0.237062H0V14.2301H5.20473C8.0399 14.2301 9.81202 12.8396 9.81202 10.2192C9.81202 8.73727 8.88185 7.43821 7.59767 7.00555ZM2.23667 6.11683V2.28876H4.74124C6.31456 2.28876 7.15544 2.85856 7.15544 4.17994C7.15544 5.50132 6.3135 6.11683 4.74124 6.11683H2.23667ZM2.23667 8.07711H5.16008C6.71215 8.07711 7.55302 8.85102 7.55302 10.1277C7.55302 11.3811 6.71108 12.1794 5.16114 12.1794H2.23774V8.07605L2.23667 8.07711ZM20.2034 14.4576C23.4596 14.4576 25.6526 12.4973 25.6526 8.66923V0.237062H23.349V8.39496C23.349 11.0845 22.2413 12.3389 20.2034 12.3389C18.1655 12.3389 17.0589 11.0845 17.0589 8.39496V0.237062H14.7552V8.64585C14.7552 12.4973 16.9696 14.4576 20.2034 14.4576ZM31.0764 13.2266C32.0289 13.9112 33.5799 14.4576 35.3956 14.4576C38.1648 14.4576 40.2686 13.0437 40.2686 10.4924C40.2686 8.46406 39.2949 7.23304 37.1677 6.43575L34.9757 5.61507C33.8456 5.20579 33.2035 4.79545 33.2035 3.7696C33.2035 2.63 34.222 2.08359 35.5954 2.08359C37.19 2.08359 38.4306 2.69804 39.5606 3.58782V1.1481C38.4752 0.419908 37.0794 0.00956751 35.5508 0.00956751C33.0483 0.00956751 30.9658 1.35433 30.9658 3.81531C30.9658 6.11683 32.3393 7.1193 34.155 7.80284L36.1269 8.5321C37.3452 9.01047 38.0319 9.4442 38.0319 10.5381C38.0319 11.7914 36.9466 12.3612 35.3956 12.3612C33.801 12.3612 32.3169 11.768 31.0764 10.7433V13.2266ZM48.4999 0.237062H46.1973V14.229H48.4999V0.237062ZM55.0717 14.212H57.2914V5.10905L66.6335 14.4289V0.215801H64.4202V9.16355L55.0717 0V14.212ZM81.0284 0.240251V2.33554H75.0476V5.7033H80.4107V7.7752H75.0476V12.1157H81.0284V14.2333H72.7897V0.240251H81.0284ZM86.3915 13.217C87.344 13.9016 88.8939 14.448 90.7107 14.448C93.4789 14.448 95.5838 13.0352 95.5838 10.4828C95.5838 8.45449 94.6089 7.22454 92.4828 6.42618L90.2897 5.60656C89.1597 5.19622 88.5176 4.78588 88.5176 3.76003C88.5176 2.62044 89.536 2.07402 90.9095 2.07402C92.5041 2.07402 93.7447 2.68953 94.8747 3.57825V1.1396C93.7893 0.41034 92.3935 0 90.8648 0C88.3624 0 86.2799 1.34477 86.2799 3.80575C86.2799 6.10726 87.6534 7.10973 89.4691 7.79327L91.441 8.52253C92.6593 9.00091 93.346 9.43463 93.346 10.5285C93.346 11.7819 92.2617 12.3517 90.7096 12.3517C89.1151 12.3517 87.631 11.7595 86.3915 10.7337V13.217ZM100.303 13.217C101.255 13.9016 102.806 14.448 104.622 14.448C107.391 14.448 109.495 13.0352 109.495 10.4828C109.495 8.45449 108.52 7.22454 106.394 6.42618L104.201 5.60656C103.072 5.19622 102.429 4.78588 102.429 3.76003C102.429 2.62044 103.448 2.07402 104.821 2.07402C106.415 2.07402 107.657 2.68953 108.786 3.57825V1.1396C107.702 0.41034 106.306 0 104.777 0C102.274 0 100.192 1.34477 100.192 3.80575C100.192 6.10726 101.566 7.10973 103.381 7.79327L105.353 8.52253C106.572 9.00091 107.258 9.43463 107.258 10.5285C107.258 11.7819 106.173 12.3517 104.622 12.3517C103.027 12.3517 101.543 11.7595 100.303 10.7337V13.217Z" fill="#030A21"/>
</svg>
