<svg width="215" height="26" viewBox="0 0 215 26" fill="none" xmlns="http://www.w3.org/2000/svg">
<path fill-rule="evenodd" clip-rule="evenodd" d="M18.6863 8.18339V16.3668H20.176H21.6656L21.7331 11.4907L21.8007 6.61491L26.3918 11.6147C29.1476 14.616 31.1645 16.6148 31.4371 16.6148C31.8673 16.6148 31.8913 16.184 31.8913 8.43137V0.247981H30.4016H28.9119L28.8444 5.08808L28.7769 9.92818L24.1838 4.96409C21.4529 2.01262 19.4076 0 19.1385 0C18.7107 0 18.6863 0.442895 18.6863 8.18339ZM38.0665 6.12737C36.6072 9.5086 35.0174 13.1958 34.5338 14.3209L33.6543 16.3668H35.3549H37.0556L37.4839 15.2509L37.912 14.1349H41.2212H44.5302L44.9585 15.2509L45.3865 16.3668H46.9855C47.8648 16.3668 48.5843 16.2777 48.5843 16.1689C48.5843 16.06 47.0428 12.4055 45.1585 8.04749C42.391 1.6461 41.6355 0.110104 41.2264 0.051828C40.7859 -0.0109113 40.3746 0.779902 38.0665 6.12737ZM50.5775 8.18339V16.3668H52.0672H53.5569L53.6244 11.4977L53.6919 6.62854L58.2648 11.6217C61.1375 14.7586 63.0131 16.6148 63.3101 16.6148C63.7643 16.6148 63.7825 16.3006 63.7825 8.43137V0.247981H62.2876H60.7927V4.95963C60.7927 7.55103 60.7068 9.67128 60.6019 9.67128C60.497 9.67128 58.3949 7.49623 55.9303 4.83762C53.4059 2.11429 51.2592 0.00297469 51.0136 0.00198276C50.6072 0.000246892 50.5775 0.554239 50.5775 8.18339ZM71.9382 0.269803C68.7835 1.00953 66.3243 3.69344 65.7927 6.97721C65.3669 9.60606 66.0887 11.9408 67.9349 13.9051C69.3306 15.3905 70.3347 15.9487 72.3583 16.3645C75.5227 17.0145 78.7203 15.8443 80.4726 13.3952L80.9739 12.6944L79.8393 11.8582L78.7049 11.0218L77.6081 12.0678C73.7271 15.7689 67.8753 12.3396 69.0184 7.034C69.9119 2.88725 75.0785 1.57989 77.9059 4.78505L78.6528 5.63141L79.8218 4.76943L80.9911 3.90744L80.3934 3.13597C78.458 0.638303 75.1498 -0.483316 71.9382 0.269803ZM94.8092 0.80594C94.6216 1.24908 93.0577 4.88548 91.3338 8.88666C89.6097 12.8881 88.1993 16.2078 88.1993 16.2641C88.1993 16.3207 88.932 16.3668 89.8277 16.3668H91.4559L91.9365 15.2509L92.4171 14.1349H95.6401H98.8634L99.3241 15.2499L99.7848 16.365L101.487 16.3658C102.424 16.3663 103.153 16.2725 103.107 16.1572C103.061 16.0419 101.468 12.3594 99.5668 7.97384C96.7421 1.45887 96.0218 0 95.6299 0C95.3245 0 95.026 0.293114 94.8092 0.80594ZM194.548 0.353125C193.041 0.929929 192.396 1.47251 191.828 2.64125C191.149 4.03639 191.272 5.56272 192.172 6.91596C192.665 7.65841 193.38 8.16181 195.379 9.17556C198.516 10.7671 198.822 11.0205 198.822 12.0271C198.822 14.1969 195.641 14.4407 193.617 12.4259L192.673 11.4867L192.073 11.9716C191.742 12.2384 191.259 12.6056 190.997 12.7879C190.538 13.1088 190.545 13.1482 191.204 14.0085C192.717 15.9827 195.446 16.9538 197.99 16.4228C200.639 15.8698 202.061 14.2964 202.061 11.919C202.061 9.58597 201.197 8.61983 197.504 6.81949C194.639 5.42286 194.141 4.80489 194.925 3.61482C195.693 2.44807 198.226 2.83021 199.277 4.27148C199.589 4.69999 199.662 4.68164 200.647 3.92604C201.219 3.48712 201.728 3.10027 201.777 3.06629C202.038 2.88576 200.633 1.40258 199.668 0.839666C198.31 0.0473649 195.936 -0.1783 194.548 0.353125ZM207.542 0.291379C205.474 0.876367 204.303 2.45006 204.304 4.64172C204.306 6.78527 205.381 7.90838 209.113 9.66656C211.45 10.7671 211.972 11.3484 211.676 12.5211C211.565 12.9622 211.219 13.297 210.616 13.5477C209.306 14.0928 208.039 13.7947 206.707 12.6275C206.097 12.0926 205.523 11.6551 205.432 11.6551C205.088 11.6551 203.556 12.9674 203.556 13.2625C203.556 13.4322 204.094 14.0722 204.752 14.6845C208.883 18.5304 215.853 16.0464 214.914 11.0629C214.606 9.42875 213.807 8.63868 210.998 7.19146C209.543 6.44132 208.169 5.67431 207.947 5.48733C207.406 5.03204 207.433 3.8948 207.998 3.38619C208.903 2.57058 211.277 3.04769 212.094 4.20924C212.434 4.69206 212.461 4.68685 213.48 3.94142C214.051 3.52307 214.519 3.07919 214.519 2.95495C214.519 2.83096 214.114 2.28317 213.619 1.7381C212.254 0.234591 209.805 -0.348413 207.542 0.291379ZM0 8.30738V16.3668H1.61948H3.23896V13.267V10.1672H6.10419H8.96942V8.67935V7.19146H6.10419H3.23896V5.20761V3.22376H6.85164H10.4643V1.73587V0.247981H5.23216H0V8.30738ZM12.2084 8.30738V16.3668H13.8279H15.4473V8.30738V0.247981H13.8279H12.2084V8.30738ZM83.2163 8.30738V16.3668H84.8357H86.4552V8.30738V0.247981H84.8357H83.2163V8.30738ZM104.892 8.30738V16.3668H109.875H114.858V14.8789V13.391H111.495H108.131V11.3228C108.131 10.1853 108.058 7.22816 107.967 4.75133L107.803 0.247981H106.348H104.892V8.30738ZM122.753 0.408426C122.659 0.501915 122.582 4.13088 122.582 8.47278V16.3668H128.063H133.545V14.8789V13.391H129.683H125.821V11.4156V9.44016L128.499 9.36973L131.178 9.2993V7.93541V6.57151L128.499 6.50108L125.821 6.43066V4.82721V3.22376H129.571H133.32L133.246 1.79787L133.171 0.371972L128.047 0.305016C125.229 0.268315 122.847 0.314689 122.753 0.408426ZM134.79 0.398505C134.79 0.481083 135.867 2.26482 137.183 4.36224L139.576 8.1757L136.944 12.2711L134.312 16.3668L136.108 16.3633L137.905 16.3601L139.613 13.6191L141.321 10.8782L142.984 13.5606L144.647 16.2428L146.456 16.3159L148.265 16.3888L147.651 15.4205C147.313 14.8876 146.137 13.0423 145.038 11.3196L143.041 8.18736L145.287 4.56187C146.523 2.56785 147.596 0.776183 147.671 0.58003C147.784 0.28766 147.503 0.237071 146.097 0.297827L144.385 0.371972L142.947 2.7278C142.157 4.0235 141.427 5.10767 141.327 5.13718C141.226 5.16645 140.478 4.07855 139.664 2.71937L138.184 0.247981H136.487C135.554 0.247981 134.79 0.315679 134.79 0.398505ZM149.989 8.30738V16.3668H151.608H153.228V13.515V10.6632H154.932C159.205 10.6632 161.45 8.87005 161.45 5.45559C161.45 2.88204 160.287 1.34158 157.779 0.590197C157.054 0.373213 155.421 0.247981 153.312 0.247981H149.989V8.30738ZM163.858 0.413387C163.767 0.504148 163.692 4.13088 163.692 8.47278V16.3668H165.311H166.931V13.515V10.6632H168.132H169.334L171.383 13.515L173.433 16.3668H175.179C176.51 16.3668 176.882 16.2929 176.741 16.0568C176.638 15.8864 175.66 14.4811 174.566 12.9345L172.576 10.1219L173.373 9.50141C174.541 8.59132 175.231 7.08508 175.234 5.43898C175.237 2.88874 173.596 1.0016 170.938 0.499932C169.454 0.219713 164.118 0.154494 163.858 0.413387ZM178.563 0.408426C178.469 0.501915 178.392 4.13088 178.392 8.47278V16.3668H183.873H189.354V14.8789V13.391H185.493H181.631V11.4071V9.4233H184.371H187.112V7.93541V6.44752H184.371H181.631V4.83564V3.22376H185.38H189.13L189.055 1.79787L188.981 0.371972L183.857 0.305016C181.039 0.268315 178.657 0.314689 178.563 0.408426ZM157.631 3.81743C158.603 4.64965 158.609 6.16408 157.643 7.12476C157.048 7.71793 156.731 7.8134 155.095 7.89573L153.228 7.98971V5.60661V3.22376H155.082C156.68 3.22376 157.033 3.30609 157.631 3.81743ZM171.238 3.7227C172.096 4.39448 172.303 5.45882 171.786 6.54274C171.292 7.57955 170.424 7.93541 168.389 7.93541H166.931V5.57958V3.22376H168.766C170.227 3.22376 170.731 3.32543 171.238 3.7227ZM42.3274 8.83335C42.7291 9.9081 43.1359 10.9824 43.2316 11.2212C43.3893 11.6145 43.2022 11.6551 41.2344 11.6551C39.2711 11.6551 39.0788 11.6135 39.225 11.2212C40.6693 7.34447 41.2043 6.18094 41.3901 6.51175C41.504 6.7141 41.9258 7.75884 42.3274 8.83335ZM96.7805 8.92138C97.3042 10.2979 97.676 11.481 97.6062 11.5502C97.5367 11.6194 96.5859 11.6435 95.4934 11.6035L93.5072 11.5311L94.5222 8.88518C95.0803 7.43002 95.6025 6.27963 95.6825 6.32898C95.7625 6.37808 96.2565 7.54484 96.7805 8.92138ZM150.175 19.7324C150.073 19.8363 149.989 21.2416 149.989 22.8557V25.7901H150.611C151.184 25.7901 151.234 25.6991 151.234 24.6742C151.234 23.7296 151.31 23.5582 151.725 23.5582C152.017 23.5582 152.545 24.0051 153.033 24.6645C153.658 25.5103 154.015 25.773 154.551 25.7804L155.252 25.7901L154.448 24.6764C153.694 23.6319 153.67 23.5347 154.056 23.1101C154.8 22.2915 154.84 21.2421 154.156 20.4508C153.626 19.8373 153.33 19.7289 151.953 19.6429C151.078 19.5883 150.278 19.6285 150.175 19.7324ZM156.217 22.6903V25.7901H158.335C160.287 25.7901 160.453 25.7511 160.453 25.2941C160.453 24.8532 160.287 24.7981 158.958 24.7981H157.463V23.9302C157.463 23.067 157.469 23.0623 158.584 23.0623C159.539 23.0623 159.705 22.9889 159.705 22.5663C159.705 22.1438 159.539 22.0703 158.584 22.0703C157.555 22.0703 157.463 22.0198 157.463 21.4504C157.463 20.858 157.53 20.8304 158.958 20.8304C160.386 20.8304 160.453 20.8029 160.453 20.2105C160.453 19.5977 160.428 19.5905 158.335 19.5905H156.217V22.6903ZM163.707 20.1485C163.584 20.4555 162.978 21.8504 162.358 23.2483L161.232 25.7901H161.847C162.185 25.7901 162.526 25.6227 162.605 25.4181C162.708 25.1508 163.129 25.0461 164.1 25.0461C165.072 25.0461 165.492 25.1508 165.595 25.4181C165.725 25.7549 166.931 25.9716 166.931 25.6581C166.931 25.2703 164.318 19.5905 164.14 19.5905C164.024 19.5905 163.829 19.8415 163.707 20.1485ZM168.177 22.6903V25.7901L169.734 25.7891C172.261 25.7876 173.502 24.7448 173.47 22.6494C173.441 20.7365 171.923 19.5905 169.417 19.5905H168.177V22.6903ZM176.399 20.2105C176.399 20.7684 176.498 20.8304 177.395 20.8304H178.392V23.3103V25.7901H179.015H179.637V23.3103V20.8304H180.634C181.531 20.8304 181.631 20.7684 181.631 20.2105V19.5905H179.015H176.399V20.2105ZM183.94 19.9583C182.3 20.6678 181.648 22.8944 182.617 24.476C184.297 27.2174 188.675 26.0162 188.675 22.8143C188.675 20.4463 186.226 18.9691 183.94 19.9583ZM192.759 19.7559C192.668 19.8467 192.593 21.2416 192.593 22.8557V25.7901H194.587C196.414 25.7901 196.58 25.7487 196.58 25.2941C196.58 24.8582 196.414 24.7981 195.209 24.7981H193.839V22.1943C193.839 19.8348 193.796 19.5905 193.382 19.5905C193.131 19.5905 192.851 19.6649 192.759 19.7559ZM197.743 19.7559C197.651 19.8467 197.576 21.2416 197.576 22.8557V25.7901H199.819C201.895 25.7901 202.061 25.7534 202.061 25.2941C202.061 24.849 201.895 24.7981 200.442 24.7981H198.822V23.9302C198.822 23.067 198.828 23.0623 199.943 23.0623C200.898 23.0623 201.064 22.9889 201.064 22.5663C201.064 22.1438 200.898 22.0703 199.943 22.0703C198.914 22.0703 198.822 22.0198 198.822 21.4504C198.822 20.858 198.889 20.8304 200.317 20.8304C201.745 20.8304 201.812 20.8029 201.812 20.2105C201.812 19.6019 201.776 19.5905 199.86 19.5905C198.787 19.5905 197.834 19.6649 197.743 19.7559ZM204.105 22.5004C203.391 24.105 202.808 25.5017 202.808 25.6041C202.809 25.9557 204.001 25.7898 204.144 25.4181C204.247 25.1508 204.668 25.0461 205.639 25.0461C206.611 25.0461 207.031 25.1508 207.134 25.4181C207.213 25.6227 207.554 25.7901 207.891 25.7901C208.503 25.7901 208.501 25.7834 207.163 22.7563C206.425 21.0876 205.727 19.691 205.611 19.6525C205.496 19.6141 204.818 20.8957 204.105 22.5004ZM209.536 22.7173V25.8444L211.404 25.7504C213.122 25.6641 213.338 25.5912 214.083 24.8505C214.776 24.1603 214.892 23.8699 214.892 22.8277C214.892 20.6888 213.584 19.6488 210.844 19.6094L209.536 19.5905V22.7173ZM186.235 20.8285C187.079 21.1479 187.623 22.4029 187.341 23.3804C187.063 24.3458 186.441 24.7805 185.324 24.7902C183.222 24.8083 182.607 21.8973 184.496 20.8689C185.123 20.5277 185.422 20.5207 186.235 20.8285ZM153.356 21.3383C153.586 22.0589 153.057 22.5663 152.076 22.5663C151.28 22.5663 151.234 22.5189 151.234 21.6984C151.234 20.8535 151.26 20.8304 152.214 20.8304C152.983 20.8304 153.229 20.9398 153.356 21.3383ZM171.28 20.9844C171.734 21.158 172.412 22.3322 172.412 22.945C172.412 23.6485 171.033 24.7981 170.189 24.7981H169.422V22.8143V20.8304H170.149C170.549 20.8304 171.058 20.8999 171.28 20.9844ZM213.159 21.4392C213.757 22.0339 213.927 22.8649 213.616 23.6711C213.416 24.1898 212.229 24.7981 211.417 24.7981C210.789 24.7981 210.781 24.7753 210.781 22.8143V20.8304H211.665C212.27 20.8304 212.74 21.0219 213.159 21.4392ZM164.638 22.8939C165.053 24.0344 165.043 24.0542 164.086 24.0542H163.234L163.625 23.0623C163.84 22.5167 164.089 22.0703 164.178 22.0703C164.267 22.0703 164.474 22.4408 164.638 22.8939ZM205.736 24.0098C205.333 24.0535 204.951 24.0376 204.888 23.9746C204.824 23.9114 204.959 23.4293 205.188 22.9031L205.603 21.9464L206.036 22.9383L206.47 23.9302L205.736 24.0098Z" fill="black"/>
</svg>
