<svg width="116" height="29" viewBox="0 0 116 29" fill="none" xmlns="http://www.w3.org/2000/svg">
<path d="M65.6378 9.54397C65.6378 6.18381 65.6957 3.05538 65.8695 0.158691L57.0057 1.83877V2.64985L57.8747 2.76571C58.5119 2.82365 58.9175 3.05538 59.1492 3.40299C59.381 3.80852 59.5548 4.38786 59.6706 5.25687C59.7865 6.93695 59.9024 10.7606 59.8444 16.7857C59.8444 22.7529 59.7865 26.5186 59.6706 27.9669C62.857 28.6621 65.3481 28.9518 67.202 28.9518C70.678 28.9518 73.4009 27.9669 75.3707 25.9392C77.3404 23.9695 78.3832 21.1887 78.3832 17.7706C78.3832 15.0477 77.6301 12.7883 76.1238 10.9923C74.6175 9.19637 72.7057 8.32736 70.4463 8.32736C68.94 8.32736 67.3758 8.7329 65.6378 9.54397ZM65.8116 27.3876C65.6957 25.5337 65.5799 19.9721 65.5799 10.8764C66.1013 10.7026 66.7965 10.5868 67.6655 10.5868C69.0559 10.5868 70.1566 11.282 70.9677 12.7303C71.7788 14.1787 72.1843 15.9167 72.1843 18.1182C72.1843 20.8411 71.7209 23.0426 70.7939 24.8964C69.867 26.6924 68.7083 27.6193 67.2599 27.6193C66.7965 27.5035 66.333 27.4455 65.8116 27.3876ZM23.7517 0.73803H0.578125V1.89671L1.79474 2.01257C2.72168 2.18637 3.35895 2.53398 3.76449 3.05538C4.17002 3.63472 4.40176 4.56166 4.45969 5.83621C4.92316 12.0931 4.92316 17.9444 4.45969 23.3322C4.34382 24.6068 4.11209 25.5337 3.76449 26.113C3.35895 26.6924 2.72168 27.04 1.79474 27.1558L0.578125 27.3297V28.4883H15.5251V27.3297L13.9608 27.2138C13.0339 27.0979 12.3966 26.6924 11.9911 26.171C11.5856 25.5916 11.3538 24.6647 11.2959 23.3902C11.1221 21.0728 11.0062 18.4078 11.0062 15.4532L14.1346 15.5112C15.8147 15.5691 16.9734 16.8436 17.5527 19.3927H18.7114V9.94951H17.5527C16.9734 12.4407 15.8727 13.7152 14.1346 13.7731L11.0062 13.8311C11.0062 8.61703 11.1221 4.90926 11.2959 2.64985H15.8727C19.1169 2.64985 21.3184 4.73546 22.593 8.9067L23.9834 8.50116L23.7517 0.73803ZM21.0288 18.5816C21.0288 21.5942 21.8978 24.0854 23.5779 26.0551C25.2579 28.0249 27.7491 28.9518 30.8775 28.9518C34.0059 28.9518 36.555 27.9669 38.4089 25.9392C40.2628 23.9695 41.1318 21.4783 41.1318 18.4658C41.1318 15.4532 40.2628 12.9621 38.5827 10.9923C36.9026 9.02257 34.4115 8.09562 31.283 8.09562C28.1546 8.09562 25.6055 9.0805 23.7517 11.1082C21.8978 13.0779 21.0288 15.5691 21.0288 18.5816ZM33.948 11.9772C34.6432 13.6573 34.9329 15.8588 34.9329 18.5237C34.9329 24.6647 33.6583 27.6773 31.1672 27.6773C29.8926 27.6773 28.9078 26.8082 28.2126 25.0702C27.5174 23.3322 27.2277 21.1307 27.2277 18.5237C27.2277 12.4407 28.5022 9.4281 30.9934 9.4281C32.2679 9.37017 33.2528 10.2392 33.948 11.9772ZM82.9021 26.0551C84.8139 27.9669 87.2471 28.9518 90.1438 28.9518C91.9398 28.9518 93.504 28.6042 94.8944 27.8511C96.2848 27.1559 97.3855 26.2868 98.1387 25.244L97.5593 24.5488C96.2848 25.5337 94.8364 25.9972 93.1564 25.9972C90.839 25.9972 89.0431 25.244 87.8265 23.6798C86.5519 22.1156 85.9726 20.1459 86.0884 17.5968H98.4863C98.4863 14.8159 97.7911 12.5565 96.3427 10.7606C94.8944 9.02256 92.8667 8.15356 90.2597 8.15356C87.0154 8.15356 84.5242 9.19637 82.7283 11.2241C80.9323 13.2517 80.0633 15.7429 80.0633 18.6975C80.0633 21.7101 80.9903 24.1433 82.9021 26.0551ZM87.1892 11.5137C87.8265 10.1233 88.6375 9.4281 89.7383 9.4281C91.4763 9.4281 92.3453 11.6296 92.3453 16.0905L86.2043 16.2064C86.2622 14.4683 86.5519 12.9041 87.1892 11.5137ZM114.07 9.19637C112.506 8.50116 110.537 8.09562 108.161 8.09562C105.728 8.09562 103.816 8.7329 102.368 9.94951C100.919 11.1661 100.166 12.6724 100.166 14.4683C100.166 16.0326 100.63 17.2492 101.499 18.1182C102.368 18.9872 103.758 19.7403 105.554 20.3776C107.176 20.9569 108.335 21.5363 108.914 22.0577C109.494 22.637 109.841 23.2743 109.841 24.1433C109.841 24.9544 109.552 25.7075 108.914 26.2868C108.335 26.9241 107.524 27.2138 106.481 27.2138C103.932 27.2138 102.02 25.3599 100.688 21.6521L99.7029 21.9418L99.9346 27.7352C102.02 28.5463 104.338 28.9518 106.887 28.9518C109.552 28.9518 111.579 28.3725 113.086 27.1558C114.592 25.9972 115.345 24.3171 115.345 22.2315C115.345 20.8411 114.997 19.6824 114.244 18.8134C113.491 17.9444 112.275 17.1912 110.537 16.496C108.625 15.8008 107.292 15.1636 106.597 14.5842C105.902 14.0049 105.554 13.3097 105.554 12.4407C105.554 11.5717 105.786 10.8764 106.307 10.2971C106.829 9.71777 107.466 9.48604 108.277 9.48604C110.594 9.48604 112.275 11.1661 113.317 14.4683L114.302 14.1787L114.07 9.19637ZM58.3381 8.67496C57.5271 8.26943 56.6581 8.09562 55.6732 8.09562C54.6883 8.09562 53.7034 8.50116 52.6027 9.31223C51.502 10.1233 50.6909 11.2241 50.0536 12.7303L50.1115 8.09562L41.3056 9.83364V10.6447L42.1746 10.7026C43.2754 10.8185 43.9126 11.6875 44.0285 13.2517C44.3761 16.8436 44.3761 20.6673 44.0285 24.7226C43.9126 26.2868 43.2754 27.0979 42.1746 27.2717L41.3056 27.3876V28.4883H53.5876V27.3876L52.0234 27.2717C50.9226 27.1559 50.2853 26.2868 50.1695 24.7226C49.8219 21.3625 49.7639 17.7706 50.0536 14.0628C50.4012 13.4835 51.1544 13.1359 52.313 13.02C53.4717 12.9041 54.8042 13.2517 56.1946 14.0628L58.3381 8.67496Z" fill="#030A21"/>
</svg>
