<svg width="216" height="92" viewBox="0 0 216 92" fill="none" xmlns="http://www.w3.org/2000/svg">
<path d="M80.435 73.967V63.7783L54.0991 90.5299C51.1663 91.1396 48.1301 91.4603 45.0196 91.4603C40.2559 91.4603 35.6651 90.7091 31.3552 89.3153C13.1721 83.4399 0 66.1478 0 45.7302C0 20.4737 20.1556 0 45.0196 0C66.9699 0 85.2503 15.9556 89.2336 37.0719C89.7618 39.8755 90.0392 42.7693 90.0392 45.7302C90.0392 56.3871 86.4508 66.1917 80.435 73.967Z" fill="#056A67"/>
<path d="M94 37.0721V87.3143H80.4341V63.7786L54.0983 90.5301C51.1654 91.1398 48.1293 91.4605 45.0187 91.4605C40.255 91.4605 35.6642 90.7094 31.3544 89.3155L69.22 50.8522H42.7377V37.0721H94Z" fill="#37ED81"/>
<path d="M117.497 47.4752H121.938V56.034C120.745 56.927 119.404 57.601 117.978 58.0248C116.513 58.4847 114.988 58.7199 113.454 58.7226C111.409 58.7582 109.389 58.2751 107.579 57.3178C105.882 56.4264 104.464 55.0806 103.48 53.4291C102.51 51.7171 102 49.7806 102 47.8101C102 45.8396 102.51 43.9031 103.48 42.191C104.465 40.5286 105.895 39.1779 107.607 38.293C109.437 37.3379 111.475 36.8552 113.537 36.8883C115.25 36.8676 116.95 37.1836 118.542 37.8186C119.998 38.4123 121.295 39.343 122.326 40.5351L119.208 43.4283C118.518 42.6757 117.677 42.0779 116.741 41.6739C115.806 41.27 114.796 41.0689 113.778 41.084C112.538 41.0582 111.312 41.3495 110.216 41.9305C109.187 42.4602 108.332 43.2775 107.755 44.2842C107.182 45.3669 106.883 46.5745 106.883 47.8008C106.883 49.0271 107.182 50.2346 107.755 51.3173C108.321 52.3259 109.158 53.1543 110.169 53.7082C111.25 54.2985 112.465 54.5966 113.694 54.5734C115.01 54.5818 116.307 54.2622 117.469 53.6431L117.497 47.4752ZM132.827 42.5073C133.871 42.0883 134.987 41.8827 136.111 41.9026V46.2379C135.593 46.2379 135.242 46.182 135.066 46.182C134.493 46.1478 133.92 46.2299 133.379 46.4233C132.839 46.6166 132.343 46.9174 131.92 47.3077C131.51 47.766 131.197 48.3033 131 48.8871C130.803 49.4708 130.725 50.0887 130.773 50.7033V58.3597H126.147V42.1445H130.616V44.2842C131.175 43.4974 131.94 42.8822 132.827 42.5073ZM141.857 57.5318C140.548 56.8571 139.453 55.8295 138.692 54.5641C137.947 53.2507 137.555 51.7645 137.555 50.2521C137.555 48.7398 137.947 47.2536 138.692 45.9402C139.449 44.6645 140.545 43.6269 141.857 42.9446C143.275 42.2406 144.836 41.8745 146.418 41.8745C148 41.8745 149.56 42.2406 150.979 42.9446C152.28 43.6225 153.369 44.6497 154.124 45.9123C154.876 47.2236 155.272 48.7106 155.272 50.2242C155.272 51.7378 154.876 53.2249 154.124 54.5362C153.369 55.7987 152.28 56.8259 150.979 57.5039C149.56 58.2078 148 58.574 146.418 58.574C144.836 58.574 143.275 58.2078 141.857 57.5039V57.5318ZM149.387 53.5222C150.128 52.6003 150.532 51.4511 150.532 50.2661C150.532 49.0811 150.128 47.9319 149.387 47.01C149.014 46.5966 148.556 46.2689 148.045 46.049C147.534 45.8291 146.982 45.7222 146.427 45.7355C145.874 45.7168 145.324 45.8156 144.812 46.0257C144.301 46.2357 143.839 46.5521 143.457 46.9542C142.71 47.8731 142.302 49.0234 142.302 50.2103C142.302 51.3971 142.71 52.5475 143.457 53.4663C143.84 53.867 144.302 54.1825 144.813 54.3924C145.325 54.6023 145.875 54.702 146.427 54.685C146.974 54.7102 147.52 54.6197 148.03 54.4194C148.54 54.2191 149.002 53.9134 149.387 53.5222ZM183.841 42.1445L178.003 58.3597H173.507L169.88 48.2938L166.124 58.3597H161.628L155.817 42.1445H160.221L164.033 53.1128L167.983 42.1445H171.943L175.783 53.1128L179.705 42.1445H183.841ZM196.886 57.5783C196.375 57.9384 195.8 58.1973 195.193 58.3411C194.501 58.519 193.789 58.6066 193.074 58.6016C191.457 58.7043 189.862 58.1743 188.624 57.1224C188.074 56.5516 187.649 55.8704 187.378 55.1234C187.107 54.3765 186.996 53.5804 187.051 52.7872V46.1262H184.544V42.5073H187.033V38.5535H191.714V42.5073H195.729V46.1262H191.714V52.7221C191.674 53.2972 191.86 53.8653 192.232 54.3036C192.427 54.497 192.661 54.6467 192.918 54.7429C193.174 54.8391 193.448 54.8796 193.722 54.8618C194.389 54.8749 195.04 54.6619 195.572 54.2571L196.886 57.5783ZM214.15 43.7074C215.383 44.9168 216 46.7061 216 49.0753V58.3783H211.374V49.8195C211.45 48.7874 211.151 47.7625 210.532 46.9356C210.218 46.6119 209.838 46.3609 209.418 46.2002C208.998 46.0395 208.547 45.973 208.099 46.0053C207.585 45.9858 207.073 46.0742 206.595 46.2648C206.117 46.4554 205.684 46.7441 205.323 47.1123C204.929 47.556 204.625 48.0736 204.43 48.6356C204.234 49.1975 204.151 49.7927 204.186 50.387V58.4063H199.56V36.0789H204.186V43.8749C204.824 43.2411 205.591 42.7526 206.434 42.4422C207.356 42.1076 208.33 41.9407 209.311 41.9491C210.193 41.906 211.075 42.0393 211.905 42.3411C212.736 42.6429 213.499 43.1073 214.15 43.7074ZM105.525 90.3902C104.247 90.0041 103.065 89.3511 102.056 88.4737L103.166 86.1201C104.067 86.9025 105.11 87.5027 106.237 87.8876C107.475 88.3353 108.78 88.565 110.095 88.5668C111.457 88.6499 112.812 88.3262 113.99 87.6365C114.386 87.3837 114.711 87.0345 114.936 86.6213C115.16 86.2081 115.278 85.7445 115.276 85.2735C115.289 84.9457 115.233 84.6189 115.112 84.3144C114.991 84.0098 114.807 83.7344 114.573 83.5059C114.077 83.0337 113.483 82.6779 112.834 82.464C112.149 82.2221 111.169 81.9523 109.91 81.6546C108.613 81.3573 107.337 80.9751 106.089 80.5103C105.13 80.1321 104.276 79.5256 103.601 78.7427C102.868 77.8303 102.498 76.6763 102.564 75.5053C102.562 74.4209 102.885 73.3609 103.49 72.4632C104.157 71.4951 105.089 70.7422 106.173 70.2956C107.588 69.7074 109.111 69.4284 110.641 69.4769C111.875 69.475 113.104 69.6377 114.296 69.9607C115.399 70.2344 116.446 70.7038 117.386 71.3468L116.396 73.7563C115.519 73.1996 114.569 72.7676 113.574 72.4725C112.622 72.1897 111.634 72.0425 110.641 72.0352C109.302 71.9397 107.967 72.2648 106.82 72.9655C106.424 73.2281 106.1 73.5861 105.877 74.007C105.654 74.4278 105.539 74.8982 105.543 75.375C105.532 75.7043 105.59 76.0323 105.715 76.3371C105.839 76.6419 106.027 76.9165 106.265 77.1426C106.782 77.613 107.39 77.9708 108.051 78.1939C108.997 78.515 109.961 78.7821 110.937 78.9939C112.22 79.2961 113.481 79.6846 114.712 80.1568C115.661 80.5358 116.507 81.1351 117.182 81.9058C117.909 82.7923 118.279 83.9212 118.218 85.0688C118.216 86.1497 117.894 87.2055 117.293 88.1016C116.6 89.0832 115.635 89.8373 114.518 90.2692C113.088 90.8399 111.559 91.1121 110.021 91.0693C108.496 91.0858 106.978 90.8565 105.525 90.3902ZM127.729 90.0087C126.488 89.3301 125.454 88.3232 124.741 87.0969C124.044 85.8129 123.678 84.3734 123.678 82.9105C123.678 81.4476 124.044 80.0081 124.741 78.7241C125.455 77.5032 126.489 76.5025 127.729 75.8309C129.063 75.1262 130.552 74.7711 132.059 74.7982C133.393 74.7733 134.714 75.0733 135.908 75.6727C137.017 76.2311 137.933 77.113 138.535 78.2032L136.343 79.6172C135.886 78.8909 135.248 78.2976 134.492 77.8962C133.732 77.5112 132.891 77.3165 132.04 77.3287C131.072 77.3181 130.117 77.555 129.265 78.0171C128.442 78.4758 127.765 79.1596 127.313 79.9894C126.832 80.8924 126.589 81.9048 126.61 82.9291C126.586 83.9657 126.829 84.9908 127.313 85.9061C127.765 86.7358 128.442 87.4197 129.265 87.8784C130.116 88.3447 131.072 88.5819 132.04 88.5668C132.891 88.5789 133.732 88.3842 134.492 87.9993C135.248 87.5979 135.886 87.0045 136.343 86.2782L138.572 87.5993C137.965 88.6907 137.051 89.5775 135.945 90.1483C134.757 90.771 133.435 91.0904 132.096 91.0786C130.582 91.0916 129.09 90.7102 127.766 89.9715L127.729 90.0087ZM158.334 76.5193C158.964 77.2153 159.447 78.0325 159.754 78.9216C160.061 79.8106 160.185 80.753 160.119 81.6918V90.8832H157.242V82.0174C157.336 80.7537 156.938 79.5028 156.132 78.5288C155.714 78.1182 155.214 77.8008 154.666 77.5973C154.117 77.3937 153.533 77.3085 152.949 77.3473C152.271 77.3077 151.593 77.4095 150.956 77.6465C150.319 77.8834 149.738 78.2503 149.249 78.7241C148.775 79.2549 148.411 79.8756 148.179 80.5499C147.947 81.2241 147.851 81.9381 147.898 82.65V90.8832H145.021V68.5559H147.898V77.2077C148.531 76.3916 149.362 75.7538 150.313 75.3564C151.343 74.9197 152.452 74.7042 153.569 74.7238C154.446 74.6805 155.322 74.8137 156.147 75.1157C156.971 75.4176 157.727 75.8822 158.371 76.4821L158.334 76.5193ZM171.092 90.0087C169.857 89.3318 168.832 88.3239 168.131 87.0969C167.44 85.8111 167.078 84.3723 167.078 82.9105C167.078 81.4487 167.44 80.01 168.131 78.7241C168.833 77.5025 169.858 76.5008 171.092 75.8309C172.405 75.1489 173.861 74.793 175.339 74.793C176.816 74.793 178.272 75.1489 179.585 75.8309C180.81 76.5067 181.828 77.5074 182.527 78.7241C183.219 80.01 183.581 81.4487 183.581 82.9105C183.581 84.3723 183.219 85.8111 182.527 87.0969C181.829 88.3191 180.811 89.326 179.585 90.0087C178.275 90.6991 176.818 91.0597 175.339 91.0597C173.859 91.0597 172.402 90.6991 171.092 90.0087ZM178.086 87.8225C178.895 87.3523 179.556 86.6623 179.992 85.8317C180.442 84.9178 180.677 83.9117 180.677 82.8919C180.677 81.8721 180.442 80.866 179.992 79.9521C179.555 79.1269 178.894 78.4431 178.086 77.9799C177.242 77.5279 176.3 77.2915 175.343 77.2915C174.387 77.2915 173.445 77.5279 172.6 77.9799C171.794 78.448 171.131 79.1304 170.685 79.9521C170.223 80.8624 169.982 81.8699 169.982 82.8919C169.982 83.9139 170.223 84.9214 170.685 85.8317C171.13 86.6589 171.793 87.3474 172.6 87.8225C173.441 88.2867 174.384 88.53 175.343 88.53C176.302 88.53 177.246 88.2867 178.086 87.8225ZM193.12 90.0087C191.888 89.3316 190.866 88.3236 190.169 87.0969C189.478 85.8111 189.116 84.3723 189.116 82.9105C189.116 81.4487 189.478 80.01 190.169 78.7241C190.867 77.5031 191.889 76.5014 193.12 75.8309C194.436 75.1525 195.893 74.7987 197.372 74.7987C198.85 74.7987 200.307 75.1525 201.623 75.8309C202.845 76.5072 203.86 77.508 204.556 78.7241C205.247 80.01 205.609 81.4487 205.609 82.9105C205.609 84.3723 205.247 85.8111 204.556 87.0969C203.861 88.3184 202.846 89.3254 201.623 90.0087C200.311 90.6991 198.852 91.0597 197.372 91.0597C195.891 91.0597 194.432 90.6991 193.12 90.0087ZM200.124 87.8225C200.93 87.3517 201.587 86.6616 202.021 85.8317C202.479 84.9203 202.718 83.9133 202.718 82.8919C202.718 81.8706 202.479 80.8635 202.021 79.9521C201.587 79.1275 200.929 78.4437 200.124 77.9799C199.274 77.5107 198.318 77.2733 197.348 77.2915C196.379 77.2707 195.422 77.5082 194.573 77.9799C193.762 78.4451 193.096 79.128 192.649 79.9521C192.186 80.8624 191.946 81.8699 191.946 82.8919C191.946 83.9139 192.186 84.9214 192.649 85.8317C193.141 86.6678 193.859 87.3456 194.721 87.7853C195.565 88.2716 196.524 88.5162 197.497 88.4923C198.431 88.4935 199.349 88.2498 200.161 87.7853L200.124 87.8225ZM212.605 68.5187H215.482V90.846H212.605V68.5187Z" fill="white"/>
</svg>
