<svg width="110" height="38" viewBox="0 0 110 38" fill="none" xmlns="http://www.w3.org/2000/svg">
<path d="M68.8733 28.5268C68.1869 26.9484 67.8214 25.1442 67.8214 23.1144C67.8214 13.1479 76.6958 8.75692 85.7194 8.75692H86.3175C89.0598 8.75692 100.028 9.44771 101.174 20.45L90.2559 21.6342C90.1564 18.6244 89.5082 15.467 85.819 15.467C81.0829 15.467 80.7338 19.3645 80.7338 23.065V23.1638C80.7338 26.864 81.1328 30.7617 85.8192 30.7617C88.2622 30.7617 90.4555 29.3802 90.4555 26.4199H101.324L101.274 27.3574C99.4793 36.0903 91.4526 37.4716 85.7194 37.4716C78.8845 37.4716 72.0966 34.953 69.2514 29.3712V36.6076H49.3627V28.5268H53.1201V20.0989C53.1201 17.5708 51.2665 16.4303 48.9119 16.4303C45.9059 16.4303 43.6515 18.6117 43.6515 21.5863V28.5762H47.5091V36.6569H27.1693V28.5762H30.8267V16.4303H27.1696V8.3496H43.2006V13.9516C43.5014 13.7037 43.7517 13.4063 43.9522 13.1584C46.858 9.83702 50.2144 8.64718 54.6229 8.64718C60.8351 8.64718 65.8449 11.1259 65.8449 17.9177V28.5762V28.5268H68.8733ZM0 8.599V0H25.7396V8.599H20.8792V28.6964H25.7396V36.6569H0V28.6964H4.81048V8.59924H0V8.599ZM105.001 36.8604C102.519 36.8604 100.507 34.8544 100.507 32.3801C100.507 29.9055 102.519 27.8998 105.001 27.8998C107.483 27.8998 109.495 29.9057 109.495 32.3803C109.495 34.8547 107.483 36.8606 105.001 36.8606V36.8604Z" fill="#030A21"/>
</svg>
