<svg width="96" height="98" viewBox="0 0 96 98" fill="none" xmlns="http://www.w3.org/2000/svg">
<path d="M1.8718 89.0356H2.60591V91.8619H2.64262C2.76497 91.5622 2.94239 91.3419 3.17486 91.2012C3.41344 91.0544 3.69791 90.981 4.02827 90.981C4.32191 90.981 4.58803 91.0391 4.82662 91.1553C5.06521 91.2716 5.26709 91.4368 5.43227 91.6509C5.60356 91.865 5.73203 92.125 5.81768 92.4309C5.90944 92.7368 5.95533 93.0793 5.95533 93.4586C5.95533 93.8379 5.90944 94.1805 5.81768 94.4864C5.73203 94.7923 5.60356 95.0523 5.43227 95.2664C5.26709 95.4805 5.06521 95.6457 4.82662 95.7619C4.58803 95.8782 4.32191 95.9363 4.02827 95.9363C3.38591 95.9363 2.92403 95.6426 2.64262 95.0553H2.60591V95.8262H1.8718V89.0356ZM3.82639 95.2756C4.24239 95.2756 4.56968 95.1471 4.80827 94.8902C5.04686 94.6271 5.16615 94.2845 5.16615 93.8624V93.0549C5.16615 92.6328 5.04686 92.2932 4.80827 92.0363C4.56968 91.7732 4.24239 91.6417 3.82639 91.6417C3.66121 91.6417 3.50215 91.6662 3.34921 91.7151C3.20239 91.7579 3.07391 91.8191 2.9638 91.8986C2.85368 91.9782 2.76497 92.0761 2.69768 92.1923C2.6365 92.3024 2.60591 92.4217 2.60591 92.5502V94.3121C2.60591 94.465 2.6365 94.6026 2.69768 94.725C2.76497 94.8412 2.85368 94.9422 2.9638 95.0278C3.07391 95.1073 3.20239 95.1685 3.34921 95.2113C3.50215 95.2542 3.66121 95.2756 3.82639 95.2756ZM10.0682 91.0911H10.7931L8.67335 96.9273C8.6183 97.0681 8.56324 97.1843 8.50818 97.2761C8.45312 97.3739 8.38582 97.4504 8.3063 97.5055C8.22677 97.5605 8.12582 97.6003 8.00347 97.6248C7.88724 97.6492 7.74347 97.6615 7.57218 97.6615H7.19594V97.0191H7.93924L8.29712 96.0097L6.52606 91.0911H7.26018L8.39806 94.3121L8.6183 95.0829H8.66418L8.92112 94.3121L10.0682 91.0911ZM18.1192 94.8902H18.0916C18.0121 95.1899 17.8163 95.4408 17.5043 95.6426C17.1985 95.8384 16.8008 95.9363 16.3114 95.9363C15.9199 95.9363 15.5589 95.8659 15.2286 95.7252C14.9043 95.5784 14.626 95.3673 14.3935 95.0921C14.1611 94.8106 13.9775 94.465 13.8429 94.0551C13.7145 93.6391 13.6502 93.1619 13.6502 92.6236C13.6502 92.0913 13.7145 91.6203 13.8429 91.2104C13.9714 90.7944 14.1549 90.4488 14.3935 90.1735C14.6321 89.8921 14.9196 89.6779 15.2561 89.5311C15.5926 89.3843 15.9658 89.3109 16.3756 89.3109C16.9507 89.3109 17.4309 89.4393 17.8163 89.6963C18.2018 89.9532 18.4985 90.2928 18.7065 90.7149L18.0733 91.1003C17.9265 90.7577 17.7062 90.4885 17.4126 90.2928C17.1251 90.097 16.7794 89.9991 16.3756 89.9991C16.0942 89.9991 15.8373 90.0511 15.6048 90.1551C15.3723 90.253 15.1705 90.3937 14.9992 90.5772C14.834 90.7608 14.7055 90.981 14.6138 91.2379C14.522 91.4949 14.4761 91.7824 14.4761 92.1005V93.1375C14.4761 93.4556 14.522 93.7462 14.6138 94.0092C14.7055 94.2662 14.834 94.4864 14.9992 94.6699C15.1705 94.8535 15.3785 94.9972 15.6232 95.1012C15.8679 95.1991 16.1432 95.2481 16.4491 95.2481C16.6693 95.2481 16.8773 95.2205 17.0731 95.1655C17.2749 95.1043 17.4493 95.0156 17.5961 94.8993C17.7491 94.7831 17.8683 94.6393 17.954 94.4681C18.0396 94.2906 18.0825 94.0826 18.0825 93.8441V93.2109H16.6693V92.5318H18.8349V95.8262H18.1192V94.8902ZM20.2785 95.8262V91.0911H21.0126V91.9629H21.0585C21.1442 91.7365 21.2971 91.5346 21.5173 91.3572C21.7376 91.1798 22.0404 91.0911 22.4258 91.0911H22.7103V91.8252H22.279C21.8813 91.8252 21.5693 91.9017 21.343 92.0546C21.1227 92.2015 21.0126 92.3881 21.0126 92.6144V95.8262H20.2785ZM25.3926 95.9363C25.0745 95.9363 24.7839 95.8782 24.5208 95.7619C24.2578 95.6457 24.0314 95.4805 23.8418 95.2664C23.6582 95.0462 23.5145 94.7862 23.4105 94.4864C23.3065 94.1805 23.2545 93.8379 23.2545 93.4586C23.2545 93.0855 23.3065 92.7459 23.4105 92.4401C23.5145 92.1342 23.6582 91.8742 23.8418 91.6601C24.0314 91.4398 24.2578 91.2716 24.5208 91.1553C24.7839 91.0391 25.0745 90.981 25.3926 90.981C25.7107 90.981 25.9982 91.0391 26.2552 91.1553C26.5182 91.2716 26.7446 91.4398 26.9342 91.6601C27.1239 91.8742 27.2707 92.1342 27.3747 92.4401C27.4787 92.7459 27.5307 93.0855 27.5307 93.4586C27.5307 93.8379 27.4787 94.1805 27.3747 94.4864C27.2707 94.7862 27.1239 95.0462 26.9342 95.2664C26.7446 95.4805 26.5182 95.6457 26.2552 95.7619C25.9982 95.8782 25.7107 95.9363 25.3926 95.9363ZM25.3926 95.2848C25.7902 95.2848 26.1145 95.1624 26.3653 94.9177C26.6161 94.673 26.7415 94.2998 26.7415 93.7982V93.1191C26.7415 92.6175 26.6161 92.2443 26.3653 91.9996C26.1145 91.7549 25.7902 91.6325 25.3926 91.6325C24.9949 91.6325 24.6707 91.7549 24.4199 91.9996C24.1691 92.2443 24.0437 92.6175 24.0437 93.1191V93.7982C24.0437 94.2998 24.1691 94.673 24.4199 94.9177C24.6707 95.1624 24.9949 95.2848 25.3926 95.2848ZM28.1977 91.0911H28.9135L29.4182 93.1375L29.9229 95.2113H29.9413L30.5194 93.1375L31.1158 91.0911H31.7674L32.3822 93.1375L32.9695 95.2113H32.9878L33.4742 93.1375L33.9881 91.0911H34.6763L33.4191 95.8262H32.5107L31.85 93.5504L31.437 92.1097H31.4187L31.0149 93.5504L30.3542 95.8262H29.4641L28.1977 91.0911ZM36.783 95.8262C36.5261 95.8262 36.3303 95.7558 36.1957 95.6151C36.0673 95.4683 36.003 95.2786 36.003 95.0462V91.7335H35.223V91.0911H35.6635C35.8226 91.0911 35.9296 91.0605 35.9847 90.9993C36.0459 90.9321 36.0764 90.8189 36.0764 90.6598V89.7789H36.7372V91.0911H37.7741V91.7335H36.7372V95.1838H37.7007V95.8262H36.783ZM38.9541 89.0356H39.6882V91.8619H39.7249C39.8411 91.5928 40.0032 91.3786 40.2112 91.2196C40.4254 91.0605 40.7098 90.981 41.0646 90.981C41.5541 90.981 41.9395 91.1401 42.2209 91.4582C42.5084 91.7702 42.6522 92.2137 42.6522 92.7888V95.8262H41.9181V92.9172C41.9181 92.0669 41.5602 91.6417 40.8444 91.6417C40.6976 91.6417 40.5538 91.6601 40.4131 91.6968C40.2785 91.7335 40.1562 91.7885 40.0461 91.8619C39.9359 91.9353 39.8472 92.0302 39.7799 92.1464C39.7188 92.2565 39.6882 92.3881 39.6882 92.541V95.8262H38.9541V89.0356ZM46.0416 95.9363C45.5216 95.9363 45.0781 95.8384 44.711 95.6426C44.3439 95.4408 44.0319 95.1655 43.775 94.8168L44.3439 94.3396C44.5703 94.6393 44.8211 94.8688 45.0964 95.0278C45.3717 95.1808 45.6959 95.2572 46.0691 95.2572C46.5279 95.2572 46.8767 95.1471 47.1152 94.9269C47.3599 94.7066 47.4823 94.413 47.4823 94.0459C47.4823 93.7401 47.3905 93.5045 47.207 93.3393C47.0235 93.1742 46.7207 93.0426 46.2985 92.9448L45.7755 92.8255C45.1882 92.6909 44.7385 92.489 44.4265 92.2198C44.1207 91.9445 43.9677 91.5591 43.9677 91.0636C43.9677 90.7822 44.0197 90.5313 44.1237 90.3111C44.2277 90.0909 44.3715 89.9073 44.555 89.7605C44.7447 89.6137 44.9679 89.5036 45.2249 89.4302C45.4879 89.3506 45.7755 89.3109 46.0875 89.3109C46.5708 89.3109 46.9837 89.3996 47.3263 89.577C47.675 89.7544 47.9687 90.0144 48.2072 90.357L47.6291 90.7791C47.4517 90.5344 47.2376 90.3417 46.9868 90.201C46.7359 90.0603 46.4239 89.9899 46.0508 89.9899C45.6409 89.9899 45.3167 90.0786 45.0781 90.2561C44.8456 90.4273 44.7294 90.6873 44.7294 91.0361C44.7294 91.3419 44.8272 91.5744 45.023 91.7335C45.2249 91.8864 45.5277 92.0088 45.9315 92.1005L46.4545 92.2198C47.0847 92.3605 47.5404 92.5746 47.8218 92.8622C48.1032 93.1497 48.2439 93.5321 48.2439 94.0092C48.2439 94.3029 48.1919 94.569 48.0879 94.8076C47.9901 95.0462 47.8463 95.2481 47.6567 95.4132C47.467 95.5784 47.2345 95.7069 46.9592 95.7986C46.6901 95.8904 46.3842 95.9363 46.0416 95.9363ZM51.2635 95.9363C50.9332 95.9363 50.6364 95.8782 50.3734 95.7619C50.1103 95.6457 49.887 95.4805 49.7035 95.2664C49.5261 95.0523 49.3884 94.7923 49.2906 94.4864C49.1988 94.1805 49.1529 93.8379 49.1529 93.4586C49.1529 93.0793 49.1988 92.7368 49.2906 92.4309C49.3884 92.125 49.5261 91.865 49.7035 91.6509C49.887 91.4368 50.1103 91.2716 50.3734 91.1553C50.6364 91.0391 50.9332 90.981 51.2635 90.981C51.7346 90.981 52.1108 91.085 52.3922 91.293C52.6797 91.4949 52.8939 91.761 53.0346 92.0913L52.4197 92.4033C52.3341 92.1586 52.1934 91.969 51.9976 91.8344C51.8019 91.6998 51.5572 91.6325 51.2635 91.6325C51.0433 91.6325 50.8506 91.6692 50.6854 91.7426C50.5202 91.8099 50.3826 91.9078 50.2724 92.0363C50.1623 92.1586 50.0797 92.3085 50.0247 92.4859C49.9696 92.6572 49.9421 92.8469 49.9421 93.0549V93.8624C49.9421 94.2784 50.0522 94.621 50.2724 94.8902C50.4988 95.1532 50.8292 95.2848 51.2635 95.2848C51.8569 95.2848 52.2852 95.0095 52.5482 94.4589L53.0804 94.8168C52.9275 95.1593 52.6981 95.4316 52.3922 95.6335C52.0924 95.8353 51.7162 95.9363 51.2635 95.9363ZM54.1167 89.0356H54.8509V91.8619H54.8876C55.0038 91.5928 55.1659 91.3786 55.3739 91.2196C55.588 91.0605 55.8725 90.981 56.2273 90.981C56.7167 90.981 57.1022 91.1401 57.3836 91.4582C57.6711 91.7702 57.8149 92.2137 57.8149 92.7888V95.8262H57.0807V92.9172C57.0807 92.0669 56.7229 91.6417 56.0071 91.6417C55.8603 91.6417 55.7165 91.6601 55.5758 91.6968C55.4412 91.7335 55.3189 91.7885 55.2087 91.8619C55.0986 91.9353 55.0099 92.0302 54.9426 92.1464C54.8814 92.2565 54.8509 92.3881 54.8509 92.541V95.8262H54.1167V89.0356ZM61.1217 95.9363C60.8036 95.9363 60.513 95.8782 60.2499 95.7619C59.9869 95.6457 59.7605 95.4805 59.5709 95.2664C59.3873 95.0462 59.2436 94.7862 59.1396 94.4864C59.0356 94.1805 58.9836 93.8379 58.9836 93.4586C58.9836 93.0855 59.0356 92.7459 59.1396 92.4401C59.2436 92.1342 59.3873 91.8742 59.5709 91.6601C59.7605 91.4398 59.9869 91.2716 60.2499 91.1553C60.513 91.0391 60.8036 90.981 61.1217 90.981C61.4398 90.981 61.7273 91.0391 61.9843 91.1553C62.2473 91.2716 62.4737 91.4398 62.6633 91.6601C62.853 91.8742 62.9998 92.1342 63.1038 92.4401C63.2078 92.7459 63.2598 93.0855 63.2598 93.4586C63.2598 93.8379 63.2078 94.1805 63.1038 94.4864C62.9998 94.7862 62.853 95.0462 62.6633 95.2664C62.4737 95.4805 62.2473 95.6457 61.9843 95.7619C61.7273 95.8782 61.4398 95.9363 61.1217 95.9363ZM61.1217 95.2848C61.5193 95.2848 61.8436 95.1624 62.0944 94.9177C62.3452 94.673 62.4706 94.2998 62.4706 93.7982V93.1191C62.4706 92.6175 62.3452 92.2443 62.0944 91.9996C61.8436 91.7549 61.5193 91.6325 61.1217 91.6325C60.724 91.6325 60.3998 91.7549 60.149 91.9996C59.8982 92.2443 59.7727 92.6175 59.7727 93.1191V93.7982C59.7727 94.2998 59.8982 94.673 60.149 94.9177C60.3998 95.1624 60.724 95.2848 61.1217 95.2848ZM66.2566 95.9363C65.9385 95.9363 65.6479 95.8782 65.3848 95.7619C65.1217 95.6457 64.8954 95.4805 64.7057 95.2664C64.5222 95.0462 64.3785 94.7862 64.2745 94.4864C64.1705 94.1805 64.1185 93.8379 64.1185 93.4586C64.1185 93.0855 64.1705 92.7459 64.2745 92.4401C64.3785 92.1342 64.5222 91.8742 64.7057 91.6601C64.8954 91.4398 65.1217 91.2716 65.3848 91.1553C65.6479 91.0391 65.9385 90.981 66.2566 90.981C66.5747 90.981 66.8622 91.0391 67.1192 91.1553C67.3822 91.2716 67.6086 91.4398 67.7982 91.6601C67.9879 91.8742 68.1347 92.1342 68.2387 92.4401C68.3427 92.7459 68.3947 93.0855 68.3947 93.4586C68.3947 93.8379 68.3427 94.1805 68.2387 94.4864C68.1347 94.7862 67.9879 95.0462 67.7982 95.2664C67.6086 95.4805 67.3822 95.6457 67.1192 95.7619C66.8622 95.8782 66.5747 95.9363 66.2566 95.9363ZM66.2566 95.2848C66.6542 95.2848 66.9785 95.1624 67.2293 94.9177C67.4801 94.673 67.6055 94.2998 67.6055 93.7982V93.1191C67.6055 92.6175 67.4801 92.2443 67.2293 91.9996C66.9785 91.7549 66.6542 91.6325 66.2566 91.6325C65.8589 91.6325 65.5347 91.7549 65.2839 91.9996C65.033 92.2443 64.9076 92.6175 64.9076 93.1191V93.7982C64.9076 94.2998 65.033 94.673 65.2839 94.9177C65.5347 95.1624 65.8589 95.2848 66.2566 95.2848ZM70.382 95.8262C70.1251 95.8262 69.9293 95.7558 69.7947 95.6151C69.6663 95.4683 69.602 95.2848 69.602 95.0645V89.0356H70.3362V95.1838H71.0336V95.8262H70.382Z" fill="white"/>
<path d="M92.8313 0.353516H23.4456C22.1177 0.353516 21.4538 0.353516 21.0413 0.766039C20.6287 1.17856 20.6287 1.84251 20.6287 3.1704V24.0198C20.6287 25.3476 20.6287 26.0116 20.2162 26.4241C19.8037 26.8366 19.1398 26.8366 17.8119 26.8366H13.0533C11.7254 26.8366 11.0615 26.8366 10.649 27.2492C10.2364 27.6617 10.2364 28.3256 10.2364 29.6535V48.124C10.2364 49.4519 10.2364 50.1159 9.82392 50.5284C9.4114 50.9409 8.74745 50.9409 7.41956 50.9409H3.52392C2.19602 50.9409 1.53208 50.9409 1.11955 51.3535C0.707031 51.766 0.707031 52.4299 0.707031 53.7578V81.4572C0.707031 82.7851 0.707031 83.449 1.11955 83.8615C1.53208 84.2741 2.19602 84.2741 3.52392 84.2741H68.8313C70.1592 84.2741 70.8232 84.2741 71.2357 83.8615C71.6482 83.449 71.6482 82.7851 71.6482 81.4572V58.4485C71.6482 57.1206 71.6482 56.4566 72.0607 56.0441C72.4733 55.6316 73.1372 55.6316 74.4651 55.6316H78.065C79.3929 55.6316 80.0568 55.6316 80.4694 55.2191C80.8819 54.8066 80.8819 54.1426 80.8819 52.8147V34.3442C80.8819 33.0163 80.8819 32.3524 81.2944 31.9398C81.7069 31.5273 82.3709 31.5273 83.6988 31.5273H92.8313C94.1592 31.5273 94.8232 31.5273 95.2357 31.1148C95.6482 30.7023 95.6482 30.0383 95.6482 28.7104V3.1704C95.6482 1.84251 95.6482 1.17856 95.2357 0.766039C94.8232 0.353516 94.1592 0.353516 92.8313 0.353516Z" fill="#091E62" stroke="white" stroke-width="0.705882"/>
<path d="M33.2322 15.4578L31.8093 11.9675H31.4603L31.675 15.5115V26.707H28.9366V7.96721H32.212L37.7964 19.2165L39.2461 22.7067H39.5952L39.3804 19.1628V7.96721H42.1189V26.707H38.8166L33.2322 15.4578ZM46.9121 26.707V7.96721H57.7855V10.4641H49.7579V15.941H57.0069V18.411H49.7579V24.2102H57.7855V26.707H46.9121ZM74.9448 26.707H71.6425L67.7227 19.4044H67.4006L63.5076 26.707H60.3933L65.8434 17.1492L60.6349 7.96721H63.964L67.5885 14.8134H67.9107L71.6425 7.96721H74.73L69.4678 17.0955L74.9448 26.707ZM84.5329 10.4641V26.707H81.687V10.4641H76.7201V7.96721H89.4997V10.4641H84.5329Z" fill="white"/>
<path d="M25.1451 51.4413C23.749 51.4413 22.5319 51.1818 21.4938 50.6627C20.4735 50.1258 19.5965 49.3561 18.8627 48.3538L20.8226 46.555C21.3774 47.3246 22.0128 47.9153 22.7288 48.327C23.4447 48.7386 24.2591 48.9445 25.1719 48.9445C27.3914 48.9445 28.5011 47.9242 28.5011 45.8838C28.5011 45.0605 28.3042 44.434 27.9104 44.0045C27.5166 43.557 26.8365 43.2169 25.87 42.9842L24.3396 42.6621C22.6572 42.2862 21.4132 41.6866 20.6078 40.8632C19.8203 40.022 19.4265 38.8497 19.4265 37.3462C19.4265 35.61 19.9455 34.2945 20.9837 33.3995C22.0397 32.5046 23.5074 32.0571 25.3867 32.0571C26.7291 32.0571 27.8567 32.2898 28.7695 32.7552C29.7003 33.2026 30.5057 33.9096 31.1859 34.8762L29.226 36.5944C28.7427 35.9143 28.1968 35.4042 27.5882 35.0641C26.9976 34.724 26.2458 34.554 25.333 34.554C24.3128 34.554 23.5432 34.7688 23.0241 35.1983C22.5229 35.61 22.2724 36.2991 22.2724 37.2656C22.2724 38.0532 22.4692 38.6528 22.863 39.0644C23.2747 39.4582 23.9369 39.7625 24.8498 39.9773L26.3801 40.3263C27.275 40.5232 28.0357 40.7738 28.6622 41.078C29.2886 41.3644 29.7987 41.7224 30.1925 42.1519C30.6042 42.5815 30.8995 43.0916 31.0785 43.6823C31.2575 44.255 31.3469 44.9262 31.3469 45.6959C31.3469 47.5752 30.801 49.0071 29.7092 49.9915C28.6353 50.9581 27.1139 51.4413 25.1451 51.4413ZM40.5656 34.8762V51.1191H37.7198V34.8762H32.7529V32.3793H45.5325V34.8762H40.5656ZM48.2034 51.1191V32.3793H59.0768V34.8762H51.0493V40.3531H58.2982V42.8231H51.0493V48.6223H59.0768V51.1191H48.2034ZM62.5975 51.1191V32.3793H70.0075C71.6184 32.3793 72.8265 32.8626 73.6319 33.8291C74.4553 34.7777 74.867 36.1559 74.867 37.9637C74.867 39.7714 74.4553 41.1586 73.6319 42.1251C72.8265 43.0737 71.6184 43.548 70.0075 43.548H65.4433V51.1191H62.5975ZM65.4433 41.0243H69.7659C70.446 41.0243 70.9561 40.8543 71.2962 40.5142C71.6542 40.1563 71.8331 39.5924 71.8331 38.8228V37.1045C71.8331 36.3349 71.6542 35.78 71.2962 35.44C70.9561 35.082 70.446 34.903 69.7659 34.903H65.4433V41.0243Z" fill="white"/>
<path d="M19.3839 80.1779H16.7259C15.6699 80.1779 14.8913 79.9094 14.3901 79.3725C13.9069 78.8355 13.6653 78.1106 13.6653 77.1978V75.7748C12.6092 75.6495 11.6606 75.3453 10.8194 74.862C9.97814 74.3787 9.2622 73.7344 8.67155 72.929C8.08089 72.1235 7.62448 71.157 7.3023 70.0294C6.98013 68.8839 6.81904 67.5952 6.81904 66.1633C6.81904 64.5882 7.00698 63.2011 7.38285 62.0019C7.77662 60.7848 8.32252 59.7735 9.02057 58.9681C9.73651 58.1447 10.5867 57.5272 11.5711 57.1156C12.5734 56.686 13.6832 56.4712 14.9003 56.4712C16.1174 56.4712 17.2181 56.686 18.2025 57.1156C19.2049 57.5272 20.055 58.1447 20.7531 58.9681C21.469 59.7735 22.0149 60.7848 22.3908 62.0019C22.7846 63.2011 22.9815 64.5882 22.9815 66.1633C22.9815 68.9555 22.3998 71.1659 21.2364 72.7947C20.0729 74.4056 18.4979 75.3811 16.5111 75.7211V77.6542H19.3839V80.1779ZM14.9003 73.1437C15.6162 73.1437 16.2695 73.0185 16.8602 72.7679C17.4687 72.5173 17.9788 72.1593 18.3905 71.694C18.82 71.2107 19.1512 70.629 19.3839 69.9488C19.6165 69.2687 19.7329 68.4991 19.7329 67.6399V64.6867C19.7329 63.8275 19.6165 63.0579 19.3839 62.3777C19.1512 61.6976 18.82 61.1248 18.3905 60.6595C17.9788 60.1762 17.4687 59.8093 16.8602 59.5587C16.2695 59.3081 15.6162 59.1828 14.9003 59.1828C14.1664 59.1828 13.5042 59.3081 12.9135 59.5587C12.3229 59.8093 11.8127 60.1762 11.3832 60.6595C10.9715 61.1248 10.6493 61.6976 10.4167 62.3777C10.184 63.0579 10.0676 63.8275 10.0676 64.6867V67.6399C10.0676 68.4991 10.184 69.2687 10.4167 69.9488C10.6493 70.629 10.9715 71.2107 11.3832 71.694C11.8127 72.1593 12.3229 72.5173 12.9135 72.7679C13.5042 73.0185 14.1664 73.1437 14.9003 73.1437ZM29.2079 56.7934V68.9286C29.2079 70.4321 29.4674 71.5418 29.9865 72.2578C30.5055 72.9737 31.4273 73.3317 32.7518 73.3317C34.0763 73.3317 34.9981 72.9737 35.5171 72.2578C36.0362 71.5418 36.2957 70.4321 36.2957 68.9286V56.7934H39.1416V68.4722C39.1416 69.743 39.0252 70.8438 38.7926 71.7745C38.5778 72.7052 38.2198 73.4749 37.7187 74.0834C37.2175 74.692 36.5552 75.1394 35.7319 75.4258C34.9265 75.7122 33.9331 75.8554 32.7518 75.8554C31.5705 75.8554 30.5682 75.7122 29.7448 75.4258C28.9394 75.1394 28.2861 74.692 27.7849 74.0834C27.2838 73.4749 26.9169 72.7052 26.6842 71.7745C26.4694 70.8438 26.362 69.743 26.362 68.4722V56.7934H29.2079ZM42.4208 75.5332V73.2511H44.7029V59.0754H42.4208V56.7934H49.8308V59.0754H47.5488V73.2511H49.8308V75.5332H42.4208ZM64.6228 75.5332H52.1116V72.9827L61.1057 59.2902H52.5412V56.7934H64.3274V59.3439L55.3334 73.0363H64.6228V75.5332Z" fill="white"/>
</svg>
