<svg width="125" height="55" viewBox="0 0 125 55" fill="none" xmlns="http://www.w3.org/2000/svg">
<g clip-path="url(#clip0_1076_8911)">
<path d="M50.49 32.7307H47.1V14.3107H50.49V7.00073H36.93L30.74 25.5507H30.34L24.9 7.00073H11V14.3107H14.39V32.7307H11V40.0407H23.82V26.6707H24.7L28.95 40.0407H32.47L36.79 26.6707H37.59V40.0407H50.49V32.7307ZM105.8 32.7307H98.29V14.3107H101.62V7.00073H84.26V14.3107H87.65V32.7307H84.26V40.0407H112.98V27.0707H105.8V32.7307ZM70.83 7.00073H68.44V15.6407H74.69L75.22 16.3107L70.17 29.5307C85.56 30.9407 86.07 6.61073 70.83 7.00073Z" fill="white"/>
<path d="M17.8891 50.35C16.5591 52.74 12.8191 52.09 11.0391 50.51L12.1991 49.14C13.1991 50.73 18.2291 50.32 15.2891 48.51C7.70906 47.57 12.7691 40.03 17.8491 44.04L16.8291 45.48C15.9391 44.75 13.0091 43.86 13.4191 45.78C15.2491 46.91 19.3491 47.07 17.8891 50.35ZM68.4491 20.9H62.1891L61.6591 20.23L66.7091 7H54.4191V14.32H57.8091V32.73H54.4191V40.04H68.4491V20.9Z" fill="white"/>
<path d="M113.11 50.3596C111.77 52.7296 108.04 52.0996 106.27 50.5096L107.43 49.1496C108.24 50.2796 112.46 50.9196 111.07 48.7596C110.01 48.1896 108.39 48.1596 107.42 47.3996C104.28 43.8096 110.58 41.4396 113.07 44.0496L112.05 45.4896C111.17 44.7396 108.23 43.8696 108.64 45.7796C110.46 46.9196 114.6 47.0796 113.11 50.3596ZM91.7601 44.8296V51.7796H89.7801V44.8296H87.0401V43.0596H94.4801V44.8296H91.7601ZM73.3001 51.7796L71.3701 48.9896H69.8201V51.7796H67.8401V43.0596C69.4301 43.1796 73.2701 42.6196 74.4401 43.8196C76.0001 45.1296 75.4401 48.1096 73.4101 48.6696L75.6001 51.7796H73.3001ZM73.3301 46.0296C73.3801 44.3096 70.9001 44.8896 69.8201 44.7896V47.2996C70.9101 47.2096 73.3901 47.7696 73.3301 46.0296ZM57.0901 49.1696C54.8501 54.5196 45.8101 51.2496 48.2701 45.6696C50.5101 40.3296 59.5201 43.5796 57.0901 49.1696ZM55.3801 47.4196C55.5101 43.8796 49.8501 43.8296 49.9701 47.3996C49.8201 50.9596 55.5301 51.0096 55.3801 47.4196ZM36.9101 47.4196C36.0701 49.2296 33.7801 49.2096 32.0601 49.1496V51.7696H30.0801V43.0496C33.0201 42.7696 38.6601 42.9696 36.9101 47.4196ZM35.1801 46.0996C35.2301 44.4696 33.1501 44.8096 32.0601 44.7796V47.4496C33.1601 47.4496 35.2301 47.7096 35.1801 46.0996Z" fill="white"/>
</g>
<defs>
<clipPath id="clip0_1076_8911">
<rect width="104.42" height="46.93" fill="white" transform="translate(11 5)"/>
</clipPath>
</defs>
</svg>
