<svg width="529" height="150" viewBox="0 0 529 150" fill="none" xmlns="http://www.w3.org/2000/svg">
<g clip-path="url(#clip0_912_10980)">
<path d="M477.129 82.6725C482.798 82.6725 487.561 84.7741 490.574 89.1851H490.712V83.725H497.996V122.51H490.712V116.489H490.574C487.841 121.108 482.937 123.49 477.406 123.49C466.063 123.49 456.82 114.948 456.82 103.748C456.82 91.356 465.714 82.6725 477.129 82.6725ZM361.334 82.6725C372.046 82.6725 382.131 91.0755 381.992 103.398C381.851 113.962 372.828 123.869 360.043 123.477C349.202 123.147 339.988 113.833 340.114 102.992C340.252 91.2966 349.519 82.6725 361.334 82.6725ZM420.02 82.6725C426.465 82.6725 431.716 87.1561 431.927 94.0151H424.643C424.294 91.2174 422.683 89.327 419.67 89.327C416.868 89.327 415.119 91.2174 415.119 93.4543C415.119 96.7468 418.485 97.7267 422.333 98.9177C427.795 100.597 432.838 103.886 432.838 111.098C432.838 118.587 427.373 123.49 419.812 123.49C412.809 123.49 406.083 118.729 406.083 109.765H413.37C413.72 114.46 416.099 116.839 419.951 116.839C423.313 116.839 425.554 114.668 425.554 111.517C425.554 108.858 423.525 107.11 418.97 105.638C409.446 102.626 407.836 98.4954 407.836 94.0844C407.836 87.2221 413.647 82.6725 420.02 82.6725ZM298.961 70.7031C302.984 70.7031 306.244 73.9627 306.244 77.9844V87.8555H306.386C308.696 84.4244 312.409 82.6758 317.24 82.6758C326.484 82.6758 333.418 88.555 333.418 99.1981V122.51H326.134V101.438C326.134 93.1078 322.913 89.327 316.471 89.327C310.096 89.327 306.244 93.9458 306.244 101.508V122.51H298.961L298.961 70.7031ZM397.539 70.7031V83.725H403.915V90.3761H397.536V122.51C393.517 122.51 390.253 119.251 390.253 115.229V90.3761H387.246V83.725H390.253V70.7031H397.536H397.539ZM448.13 70.7031V83.725H454.506V90.3761H448.134V122.51C444.111 122.51 440.85 119.251 440.85 115.229V90.3761H437.841V83.725H440.85V70.7031H448.134H448.13ZM524.189 82.6758V90.165C517.885 90.3761 514.665 94.223 514.665 100.739V115.229C514.665 119.251 511.404 122.51 507.381 122.51V83.725H514.176V87.2221H514.315C516.064 84.6355 519.077 82.9563 524.189 82.6758H524.189ZM360.984 89.327C352.631 89.327 345.566 97.4265 347.82 106.453C349.351 112.573 354.931 117.007 361.241 116.836C368.69 116.628 374.706 110.679 374.706 102.979C374.706 95.414 368.614 89.327 360.984 89.327ZM477.337 89.327C469.647 89.327 463.443 96.2684 464.156 104.47C464.747 111.234 470.274 116.7 477.059 116.836C484.755 116.991 490.854 110.626 490.854 103.187C490.854 95.6251 485.389 89.327 477.337 89.327Z" fill="white"/>
<path d="M200.027 97.1089C196.199 97.9859 186.124 98.4908 186.124 98.4908L184.848 102.477C184.848 102.477 189.872 102.052 193.541 102.424C193.541 102.424 194.737 102.291 194.87 103.779C194.923 105.161 194.764 106.65 194.764 106.65C194.764 106.65 194.684 107.553 193.408 107.766C192.026 108.005 182.562 108.35 182.562 108.35L181.02 113.533C181.02 113.533 180.462 114.729 181.738 114.383C182.934 114.064 192.85 112.204 194.152 112.47C195.535 112.815 197.077 114.649 196.625 116.35C196.093 118.423 186.204 124.748 180.169 124.296C180.169 124.296 177.006 124.509 174.321 120.23C171.822 116.164 175.278 108.43 175.278 108.43C175.278 108.43 173.71 104.816 174.853 103.62C174.853 103.62 175.544 103.009 177.511 102.849L179.93 97.8264C179.93 97.8264 177.165 98.0125 175.517 95.9927C173.975 94.0526 173.869 93.1756 175.039 92.6441C176.288 92.0329 187.799 89.9334 195.721 90.1991C195.721 90.1991 198.486 89.9334 200.851 94.717C200.825 94.717 201.995 96.6571 200.027 97.1089H200.027ZM170.227 116.403C169.217 118.795 166.532 121.346 163.209 119.752C159.913 118.157 154.676 107.447 154.676 107.447C154.676 107.447 152.682 103.461 152.31 103.54C152.31 103.54 151.884 102.77 151.619 107.128C151.353 111.486 151.672 119.964 149.944 121.293C148.296 122.622 146.302 122.09 145.265 120.522C144.335 118.981 143.936 115.313 144.441 108.882C145.052 102.451 146.541 95.594 148.455 93.4414C150.369 91.3153 151.911 92.8567 152.496 93.4148C152.496 93.4148 155.048 95.7269 159.275 102.53L160.019 103.779C160.019 103.779 163.847 110.211 164.246 110.184C164.246 110.184 164.565 110.477 164.831 110.264C165.229 110.158 165.07 108.085 165.07 108.085C165.07 108.085 164.272 101.095 160.79 89.2424C160.79 89.2424 160.258 87.7541 160.63 86.3722C160.976 84.9637 162.385 85.6281 162.385 85.6281C162.385 85.6281 167.808 88.3388 170.413 97.162C172.992 106.065 171.237 114.011 170.227 116.403H170.227ZM143.59 93.7337C143.138 94.6373 142.873 95.9395 140.586 96.285C140.586 96.285 118.708 97.7733 117.671 99.3147C117.671 99.3147 116.9 100.218 118.097 100.484C119.293 100.723 124.238 101.388 126.63 101.52C129.182 101.547 137.795 101.627 140.879 105.48C140.879 105.48 142.713 107.314 142.633 111.46C142.554 115.712 141.809 117.2 140.161 118.742C138.433 120.177 123.599 126.821 114.029 116.616C114.029 116.616 109.617 111.699 115.545 107.978C115.545 107.978 119.825 105.401 130.697 108.43C130.697 108.43 133.994 109.626 133.834 110.822C133.648 112.098 131.123 113.453 127.454 113.373C123.892 113.267 121.287 111.566 121.792 111.832C122.27 112.018 117.964 109.759 116.635 111.3C115.305 112.709 115.624 113.586 116.927 114.463C120.25 116.35 133.09 115.685 136.918 111.433C136.918 111.433 138.433 109.706 136.12 108.297C133.808 106.969 127.188 106.171 124.61 106.038C122.137 105.905 112.939 106.065 111.61 103.62C111.61 103.62 110.281 101.972 111.743 97.2949C113.285 92.4049 123.998 90.518 128.624 90.0928C128.624 90.0928 141.357 89.641 143.697 92.2455C143.67 92.2455 143.989 92.8567 143.59 93.7337H143.59ZM107.437 122.409C105.895 123.552 102.625 123.047 101.695 121.771C100.764 120.629 100.445 116.084 100.631 108.962C100.817 101.76 100.977 92.8301 102.519 91.4216C104.167 89.9865 105.177 91.2356 105.815 92.2189C106.506 93.1756 107.33 94.2387 107.516 96.4976C107.676 98.7566 108.208 110.609 108.208 110.609C108.208 110.609 108.899 121.293 107.437 122.409ZM110.76 84.193C106.267 85.6812 103.183 85.1763 100.578 84.0601C99.435 86.0533 98.7704 86.6645 97.8931 86.7974C96.6171 86.9303 95.474 84.8839 95.2614 84.2195C95.0487 83.7146 94.4373 82.8642 95.1816 80.8444C92.6296 78.5589 92.4435 75.4761 92.8689 73.4031C93.5069 71.0113 97.8134 61.9224 110.919 60.8593C110.919 60.8593 117.326 60.3809 118.416 63.8092H118.602C118.602 63.8092 124.822 63.8358 124.69 69.3636C124.61 74.918 117.778 81.8277 110.76 84.193H110.76ZM98.5312 71.8883C97.202 74.0144 97.1488 75.29 97.7602 76.167C99.2755 73.8549 102.04 70.214 106.107 67.4501C102.971 67.7159 100.339 69.0713 98.5312 71.8883ZM116.635 68.3272C112.514 68.9384 106.134 74.4662 103.104 78.9841C107.756 79.8345 115.97 79.5156 119.612 72.1009C119.585 72.1009 121.34 67.5033 116.635 68.3272ZM228.498 111.141C226.026 115.446 219.088 124.429 209.837 122.329C206.78 129.744 204.228 137.212 202.765 148.427C202.765 148.427 202.446 150.606 200.639 149.835C198.858 149.198 195.88 146.221 195.295 142.102C194.657 136.68 197.077 127.512 201.995 117.014C200.559 114.676 199.575 111.327 200.426 106.57C200.426 106.57 201.676 97.7467 210.528 89.7739C210.528 89.7739 211.591 88.8438 212.203 89.1361C212.894 89.4284 212.575 92.2986 212.017 93.6806C211.458 95.0625 207.497 101.919 207.497 101.919C207.497 101.919 205.025 106.543 205.716 110.184C210.368 103.035 220.949 88.6046 227.515 93.149C229.721 94.717 230.731 98.1453 230.731 101.839C230.705 105.108 229.934 108.563 228.498 111.141ZM226.584 99.8196C226.584 99.8196 226.212 96.976 223.448 100.112C221.055 102.743 216.748 107.713 213.266 114.436C216.908 114.038 220.417 112.045 221.48 111.035C223.208 109.493 227.222 105.347 226.584 99.8196ZM97.521 103.434C97.0159 109.865 94.5436 120.682 77.025 126.023C65.4612 129.505 54.5353 127.831 48.5806 126.316C48.4476 128.681 48.1818 129.691 47.8096 130.09C47.3045 130.595 43.5297 132.774 41.4562 129.691C40.5257 128.229 40.0472 125.572 39.7814 123.206C26.3833 117.041 20.2159 108.164 19.9766 107.766C19.6842 107.473 16.6271 104.284 19.6842 100.378C22.5552 96.8431 31.9393 93.3085 40.3928 91.8734C40.6853 84.6448 41.5359 79.1967 42.5461 76.6986C43.7689 73.8018 45.3108 76.4062 46.64 78.3729C47.7565 79.8345 48.4211 86.133 48.4742 91.1559C54.0036 90.8901 57.2734 91.2887 63.4408 92.4049C71.4691 93.8666 76.839 97.9593 76.3604 102.61C76.0149 107.181 71.8146 109.068 70.2196 109.201C68.5448 109.334 65.9396 108.138 65.9396 108.138C64.1586 107.287 65.8067 106.543 67.96 105.613C70.2994 104.47 69.7677 103.301 69.7677 103.301C68.8904 100.75 58.4697 98.9692 48.1021 98.9692C48.0489 104.683 48.3413 114.171 48.4742 119.698C55.7316 121.08 61.1546 120.815 61.1546 120.815C61.1546 120.815 87.6319 120.07 88.4294 103.168C89.2535 86.2393 62.0319 70.0014 41.9081 64.8457C21.8109 59.5837 10.4331 63.2511 9.4495 63.7561C8.38617 64.2876 9.36978 64.4471 9.36978 64.4471C9.36978 64.4471 10.4597 64.6065 12.3471 65.2444C14.3409 65.8822 12.7991 66.9186 12.7991 66.9186C9.36979 68.0082 5.51515 67.3173 4.77081 65.7493C4.02647 64.1813 5.27588 62.7728 6.71141 60.753C8.14692 58.627 9.71535 58.7067 9.71535 58.7067C34.571 50.0961 64.8497 65.6696 64.8497 65.6696C93.2144 80.0471 98.0527 96.8963 97.521 103.434ZM22.5021 102.557C19.6842 103.939 21.6248 105.932 21.6248 105.932C26.915 111.619 33.4279 115.18 39.6219 117.386C40.3397 107.58 40.2333 104.125 40.3131 99.1818C30.6366 99.8462 25.0541 101.388 22.5021 102.557Z" fill="white"/>
<path d="M281.134 100.536V104.044C281.134 104.815 280.523 105.426 279.752 105.426H263.03C263.03 106.303 263.057 107.074 263.057 107.792C263.057 112.974 262.844 117.2 262.339 121.957C262.26 122.674 261.675 123.206 260.984 123.206H257.368C256.996 123.206 256.65 123.046 256.411 122.78C256.172 122.515 256.039 122.143 256.092 121.771C256.597 117.04 256.837 112.868 256.837 107.792C256.837 107.048 256.837 106.277 256.81 105.426H240.275C239.504 105.426 238.893 104.815 238.893 104.044V100.536C238.893 99.7657 239.504 99.1545 240.275 99.1545H256.571C256.225 93.4407 255.534 87.9395 254.417 82.3585C254.364 82.013 254.444 81.6675 254.657 81.4018C254.869 81.136 255.188 80.9766 255.534 80.9766H259.442C260.053 80.9766 260.558 81.4018 260.691 82.013C261.781 87.78 262.472 93.3875 262.818 99.1545H279.752C280.496 99.1545 281.134 99.7923 281.134 100.536Z" fill="white"/>
<path d="M258.375 72.7117C249.735 51.4775 235.141 33.3793 216.16 20.3571C196.727 7.04261 173.945 0 150.286 0C111.155 0 74.8417 19.427 53.176 51.9825C52.9368 52.328 52.8836 52.7798 53.0165 53.1784C53.1495 53.6036 53.4685 53.8959 53.8672 54.0288L56.8977 55.0653C57.0837 55.1184 57.2699 55.145 57.4294 55.145C57.9877 55.145 58.5193 54.8527 58.8383 54.4009C68.7806 39.7841 82.2319 27.639 97.7567 19.241C113.787 10.5772 131.943 5.97959 150.259 5.97959C172.403 5.97959 193.75 12.5173 212.04 24.8485C229.877 36.8874 243.727 53.7099 252.101 73.4558C252.34 74.0405 252.925 74.4391 253.563 74.4391H257.179C257.604 74.4391 258.003 74.2265 258.215 73.881C258.481 73.5356 258.534 73.1103 258.375 72.7117H258.375ZM57.4294 54.2414C57.3496 54.2414 57.2699 54.2148 57.1901 54.1883C57.2699 54.2149 57.3496 54.2414 57.4294 54.2414H57.4826C57.4826 54.2414 57.4561 54.2414 57.4294 54.2414ZM252.819 73.9608C252.899 74.0139 252.978 74.0671 253.058 74.0936C252.978 74.0405 252.899 74.0139 252.819 73.9608Z" fill="white"/>
</g>
<defs>
<clipPath id="clip0_912_10980">
<rect width="528.75" height="150" fill="white"/>
</clipPath>
</defs>
</svg>
