<svg width="385" height="150" viewBox="0 0 385 150" fill="none" xmlns="http://www.w3.org/2000/svg">
<g clip-path="url(#clip0_925_11299)">
<path d="M54.4506 4.82227C25 4.82227 0 25.8124 0 58.0923C0 87.1387 22.2527 110.157 54.1209 110.157C83.5165 110.157 108.571 89.1664 108.571 56.8866C108.571 27.895 86.3187 4.82227 54.4506 4.82227ZM54.4506 103.909C35.2747 103.909 21.5385 84.3436 21.5385 57.3798C21.5385 31.5669 34.5604 11.1248 54.1758 11.1248C73.3517 11.1248 87.0879 30.69 87.0879 57.6538C87.033 83.4668 74.011 103.909 54.4506 103.909ZM359.615 44.7748V49.1591L365.495 50.31C367.527 50.7485 368.132 52.3378 366.813 55.5713L353.297 88.0155C352.692 89.3308 351.978 89.3308 351.538 88.0155L338.956 55.6261C337.637 52.283 338.352 50.8033 340.44 50.3648L346.264 49.2139V44.8296H294.176V49.2139L300.055 50.3648C302.088 50.8033 302.857 52.3926 301.538 55.6261L288.516 89.7693C287.912 91.0846 287.198 91.0846 286.758 89.7693L273.571 55.6261C272.418 52.283 272.967 50.8033 275.055 50.3648L280.879 49.2139V44.8296H247.802V49.3235L251.044 50.036C253.242 50.4744 254.56 51.6253 255.44 53.7079L277.802 108.567H287.912L310.275 53.7079C311.429 50.8033 312.747 49.5976 315.11 49.5976H315.989C317.912 49.5976 319.341 50.31 320.549 53.1051L343.956 110.047L337.692 124.954C333.571 134.873 330.549 136.627 326.703 136.627C325.11 136.627 323.352 136.353 321.593 136.353C317.033 136.353 314.286 139.587 314.286 143.039C314.286 146.985 317.527 149.78 322.637 149.78C329.945 149.78 337.143 143.916 343.132 129.941L375 55.352C376.484 52.009 378.352 50.5292 381.429 49.9264L384.615 49.3235V44.7748H359.615ZM154.506 102.868L130.055 105.937C122.033 106.978 119.506 104.347 119.506 100.237C119.506 95.4141 124.78 91.6326 143.077 91.6326H143.352C156.648 91.6326 172.308 83.6312 172.308 66.2581C172.308 60.7229 170.275 55.6261 166.429 51.5157C165.11 48.6659 164.506 45.5968 164.67 42.473C164.67 29.6487 173.462 22.3597 182.527 22.3597C186.319 22.3597 187.527 22.9626 187.527 25.5932C187.527 26.3056 187.363 26.9085 187.363 27.7854C187.363 32.3341 191.154 36.5541 196.593 36.5541C202.143 36.5541 205.659 32.1697 205.659 27.3469C205.659 20.0579 199.066 14.6323 186.923 14.6323C170.22 14.6323 157.363 25.4288 157.363 41.9249C157.363 43.2402 157.527 44.2815 157.527 45.268C153.187 43.5143 148.571 42.5826 143.901 42.6374C130.714 42.6374 114.945 50.6388 114.945 68.0119C114.945 76.0133 119.506 83.4668 127.363 87.8511C115.659 89.4405 108.956 95.743 108.956 105.498C108.956 115.418 116.868 122.597 131.648 120.843L153.022 118.213C163.681 116.898 167.198 120.679 167.198 126.214C167.198 135.86 158.132 143.587 143.626 143.587C132.088 143.587 127.802 139.477 127.802 133.668L127.967 130.763C127.967 127.256 125.769 124.789 122.253 124.625C118.132 124.625 115.659 127.53 115.659 131.75C115.659 141.395 124.89 149.999 143.736 149.999C164.945 149.999 178.407 136.298 178.407 120.515C178.462 107.964 168.407 101.114 154.506 102.868ZM143.516 47.8438C150.385 47.8438 155.934 55.5713 155.934 67.409C155.934 77.6027 151.264 86.3714 143.956 86.3714C136.923 86.3714 131.374 78.644 131.374 66.8062C131.374 56.777 136.044 47.8438 143.516 47.8438Z" fill="white"/>
<path d="M242.143 101.005V0L216.374 6.57654V9.6456L223.681 12.0022C224.835 12.4406 225.275 13.3175 225.275 14.4684V100.566C225.275 102.156 223.956 103.361 222.033 103.361L215.495 103.471L208.572 103.361C206.648 103.361 205.33 102.21 205.33 100.566V42.3091L179.561 48.8856V51.9547L186.868 54.3113C188.022 54.7497 188.462 55.6266 188.462 56.7775V101.005C188.462 102.32 187.747 103.033 186.703 103.197L180.714 103.909V108.568H250.934V103.909L243.791 103.197C242.857 103.033 242.143 102.32 242.143 101.005Z" fill="white"/>
</g>
<defs>
<clipPath id="clip0_925_11299">
<rect width="384.615" height="150" fill="white"/>
</clipPath>
</defs>
</svg>
