<svg width="499" height="214" viewBox="0 0 499 214" fill="none" xmlns="http://www.w3.org/2000/svg">
<path d="M421.992 57.6033C435.046 58.9443 445.827 55.0891 456.23 49.1373C468.92 41.8897 477.51 32 477.51 32C477.51 32 471.638 44.6116 460.174 54.6288C449.347 64.5608 429.923 74.996 411.604 70.3C414.849 65.9446 418.373 61.7114 421.992 57.6033Z" fill="white"/>
<path d="M120.701 160.289C157.735 149.939 180.697 151.867 197.616 162.847C206.188 168.419 216.455 176.506 220.079 182C209.205 173.952 194.274 169.969 183.924 170.934C171.338 171.144 166.3 180.992 166.3 180.992C152.527 155.725 113.154 166.638 99.3551 170.464C97.9796 170.845 96.8581 171.155 96.0411 171.355C94.6478 171.69 93.149 172.064 91.5703 172.452C82.9472 174.59 71.9335 177.319 62.5707 178.313C46.7798 179.652 33.5455 173.239 27.1726 161.173C18.9324 143.779 24.4286 122.406 30.5083 107.49C41.0514 82.7649 59.6868 60.176 82.9811 43.8742C93.6328 37.2946 105.174 31.3453 117.566 32.0582C121.184 32.7287 124.1 34.6978 125.789 37.5472C129.811 45.5504 124.695 54.1415 121.235 58.6248C118.02 62.6079 110.573 64.1163 110.871 56.8663C111.074 52.13 114.907 48.6101 116.301 47.5192C118.02 46.3912 120.247 46.1782 121.57 46.1782C122.824 45.005 123.794 36.7916 113.422 39.4736C99.8867 43.7492 89.6394 54.3945 78.5918 66.7983C58.7968 90.6431 47.6513 112.138 43.5289 134.477C41.7511 148.179 44.131 157.692 50.7732 163.599C65.5883 173.909 77.3748 170.981 105.296 164.051L105.3 164.048C109.955 162.893 115.059 161.625 120.701 160.289Z" fill="white"/>
<path fill-rule="evenodd" clip-rule="evenodd" d="M85.6902 93.4859C99.5715 74.795 116.905 63.8996 125.525 69.5985C133.498 75.4498 127.367 90.1602 125.4 94.8818C125.197 95.3667 125.04 95.7465 124.944 96.0001C128.036 96.7957 137.93 89.6732 143.698 83.261C148.28 78.1472 156.132 71.5701 161.087 69.6836C164.793 67.8798 170.518 67.2945 174.269 69.5561C176.785 71.0246 178.473 74.0394 178.652 77.2265C179.147 86.1105 168.886 100.694 163.742 93.3181C162.684 90.1335 163.841 86.7386 167.173 83.2186C168.865 81.4572 170.942 80.6617 173.539 80.744C174.562 79.1105 174.301 76.7238 172.68 75.758C170.988 74.7099 167.568 75.4228 164.422 77.8945C153.274 86.8237 143.477 101.617 137.795 117.916C136.786 120.976 136.238 125.626 138.023 128.814C142.907 136.397 154.333 125.837 154.333 125.837C162.046 118.922 169.485 109.325 175.327 100.819C190.501 78.6926 210.662 59.5813 219.562 71.988C219.626 72.0721 219.701 72.1825 219.776 72.2901C219.886 72.4518 219.993 72.6071 220.05 72.6585C220.178 72.4907 221.746 69.8087 221.746 69.8087H236.114C236.114 69.8087 205.685 123.112 205.646 123.197C205.012 124.496 204.609 126.465 205.632 127.345C206.401 127.89 207.691 127.317 207.883 127.231L207.901 127.224L207.908 127.22C215.8 123.365 227.952 105.765 228.009 105.68H232.961C225.202 116.995 215.597 130.32 203.672 138.786C200.366 141.008 196.009 143.311 191.705 141.761C187.622 139.173 187.882 136.011 188.192 132.249C188.228 131.81 188.267 131.363 188.296 130.908C188.296 130.908 188.292 130.913 188.281 130.924C188.274 130.931 188.267 130.939 188.257 130.951L188.207 131.011C187.113 132.278 176.489 144.597 167.522 141.971C164.394 140.965 159.395 138.24 163.104 125.249C163.104 125.249 163.389 124.078 163.606 123.197C162.748 124.035 161.226 125.501 161.226 125.501C152.302 134.303 142.187 144.191 129.522 142.056C120.979 139.379 120.321 131.186 120.033 127.607C120.001 127.205 119.973 126.861 119.94 126.59C118.944 118.38 127.99 102.398 129.241 100.192L129.33 100.033C129.362 99.9754 129.383 99.938 129.383 99.938C126.633 100.736 124.197 101.321 122.171 101.699C122.015 101.949 118.743 107.398 118.743 107.398L118.534 107.748C115.036 113.59 111.406 119.653 106.737 124.706L105.834 125.669C98.8269 133.925 82.357 149.346 73.483 138.743C67.517 129.735 72.9999 110.248 85.6902 93.4859ZM207.705 78.9854C205.721 80.744 197.587 91.1816 194.79 95.077C183.554 110.33 179.913 121.351 179.613 124.956C179.507 126.047 179.881 127.095 180.821 127.723C181.605 128.308 182.784 128.226 183.497 128.016C188.506 125.209 191.581 121.186 194.634 116.492C194.634 116.492 196.807 113.14 196.793 113.18C203.697 101.617 211.047 88.7501 217.271 77.5194C217.039 75.6757 214.375 73.076 207.705 78.9854ZM116.448 102.327C116.509 102.202 116.633 101.824 116.633 101.824C116.799 101.449 116.868 101.279 116.868 101.154C116.868 101.071 116.842 101.029 116.815 101.029C112.569 99.7702 106.882 97.0458 103.853 91.1816C103.848 91.1274 103.837 91.1078 103.828 91.0897L103.824 91.0815L103.819 91.0719L103.813 91.0541C103.763 91.0541 103.631 91.0964 103.57 91.1392C98.7397 98.1367 93.7772 105.68 90.6502 114.228L90.2644 115.487C89.1738 119.007 87.8321 123.365 90.4361 126.507C91.6642 128.058 94.0757 127.681 95.8215 127.095C101.658 124.059 106.34 117.763 110.097 112.711L110.184 112.595C110.184 112.595 116.43 102.327 116.448 102.327ZM119.771 96.1679C119.771 96.1679 122.525 89.7982 122.552 89.7131C123.5 86.8636 124.334 83.804 124.334 81.0821C124.334 79.0706 123.878 77.2265 122.673 75.8008C120.719 74.2496 117.357 75.0476 115.194 76.556C112.938 78.2722 107.822 83.0084 109.066 89.0426C109.97 92.1449 112.899 94.7418 116.784 95.9577L118.02 96.1679L118.121 96.1914C118.802 96.35 119.391 96.4871 119.771 96.1679Z" fill="white"/>
<path fill-rule="evenodd" clip-rule="evenodd" d="M304.12 109.183C302.734 106.169 299.446 104.24 295.944 104.45C284.561 105.495 273.431 114.925 267.585 128.459C264.517 135.417 262.843 141.159 261.745 150.296C265.283 146.188 272.501 139.44 280.695 135.752C280.695 135.752 281.81 126.993 287.493 119.201C289.641 115.973 293.952 110.777 298.783 112.158C303.005 113.584 301.519 125.36 295.912 136.758C291.757 145.141 285.405 153.524 278.971 159.306C273.285 164.165 264.877 170.033 257.516 165.505C252.885 162.74 250.519 156.958 251.018 149.498C253.234 128.334 262.796 110.317 276.481 89.7818C290.592 70.7157 306.14 51.1441 327.099 40.709C331.367 38.53 335.329 38.027 338.749 39.368C338.749 39.368 319.08 50.2634 309.703 70.4204L309.599 70.6452C307.223 75.7356 304.052 82.5357 307.344 88.5659C309.09 91.7506 312.189 92.0035 314.683 91.8357C326.177 89.1541 333.601 78.341 339.668 68.4513C343.185 60.9511 346.313 53.4905 346.313 45.1948C346.313 44.1865 346.259 42.8455 346.174 41.8398C351.668 38.9077 362.922 44.1039 362.922 44.1039C368.095 45.8293 376.703 51.5381 384.206 56.5113C389.461 59.997 394.174 63.1219 396.775 64.2609C399.86 60.6558 404.923 55.2095 407.776 52.4851L403.647 49.9282C397.266 46.0056 390.529 42.2741 383.881 38.5899L383.169 38.1948C367.554 29.6034 354.838 32.6206 348.369 34.9674C345.825 35.8905 343.498 36.686 343.498 36.686C338.699 31.4072 330.822 31.9074 325.019 33.3335C304.152 39.368 284.778 54.0787 264.004 79.5997C248.731 99.5889 239.261 116.854 234.213 133.909C230.319 145.394 229.136 162.281 238.634 172.295C246.711 180.803 257.42 178.958 264.984 175.897C281.372 167.771 296.097 150.253 303.436 130.096C305.203 124.104 307.17 115.638 304.12 109.183ZM341.795 46.0327C339.629 71.0909 320.291 85.8016 315.51 86.9723C312.61 87.5601 307.661 86.2619 312.079 75.7441C318.584 61.5789 329.686 49.5502 341.603 43.391C341.892 44.4391 341.884 45.1096 341.795 46.0327Z" fill="white"/>
<path d="M259.677 69.834H246.035L238.34 82.9511H251.978L259.677 69.834Z" fill="white"/>
<path fill-rule="evenodd" clip-rule="evenodd" d="M419.451 162.049C418.681 164.354 420.74 165.192 422.208 164.187C430.078 159.531 436.438 150.018 441.536 142.398C441.896 141.856 442.252 141.323 442.601 140.803H447.461C443.755 146.837 429.49 168.754 417.57 175.292C417.185 175.502 416.804 175.712 416.43 175.923C413.565 177.515 410.929 178.983 407.537 178.352C401.94 177.64 401.662 170.514 402.681 166.535C399.503 169.93 392.645 176.55 386.489 178.224C381.13 179.271 374.105 177.137 376.043 163.474C367.019 174.872 355.921 183.507 349.223 175.167C344.531 169.257 346.829 159.285 351.795 144.617C351.795 144.617 353.463 139.589 353.651 138.959C353.58 138.919 353.562 138.919 353.52 138.919C350.784 139.625 347.306 139.826 346.106 139.895C345.885 139.908 345.742 139.916 345.692 139.922C337.862 153.752 327.925 168.879 313.703 176.425C311.612 177.515 306.282 179.777 302.053 177.597C297.938 175.249 296.328 170.557 297.119 163.268C298.245 153.962 302.302 145.832 306.375 138.249C313.945 126.305 324.437 111.804 338.474 105.938C341.606 104.514 346.255 103.634 350.018 105.517C353.224 107.864 354.083 111.259 354.083 114.864C354.083 116.54 353.89 118.259 353.676 119.936C352.454 125.802 350.01 131.209 348.072 135.229C349.009 135.859 354.507 134.561 355.932 133.47C375.566 92.1502 398.035 61.8937 424.635 40.8984L424.845 40.7733C430.018 37.2107 436.452 32.81 442.352 33.9433C444.162 34.2786 445.544 35.7446 445.868 37.6738C446.837 43.6655 444.215 48.6939 441.853 53.1772C439.815 53.8477 436.708 54.4359 436.708 54.4359L438.9 49.9099C440.464 46.8078 441.824 44.0831 441.65 40.3957C441.194 39.4323 440.67 39.3899 440.257 39.4323C436.37 40.2279 431.382 45.0888 426.573 49.8247L423.455 52.8419C403.675 72.7463 380.429 114.361 376.83 123.078C384.95 119.097 411.741 92.3604 424.834 73.9623C427.513 73.8796 429.783 73.4168 429.783 73.4168C427.684 77.5674 413.341 96.1307 396.322 112.518C388.48 120.103 379.852 127.015 372.295 132.297C368.576 140.385 364.885 149.313 363.296 158.697C363.118 159.997 362.697 165.569 366.805 165.234C372.067 164.062 381.547 148.262 381.547 148.262L381.904 147.706C390.853 133.582 402.182 115.707 417.627 106.608C421.232 104.554 426.448 103.466 430.007 105.728C430.837 106.273 432.854 108.745 433.523 109.876C433.523 109.876 435.006 107.279 435.697 106.023H450.257L429.002 144.115C429.002 144.115 421.371 156.185 419.451 162.049ZM314.195 158.822C314.22 160.165 314.469 161.462 315.224 162.595C321.53 169.973 336.647 148.725 341.054 138.834C337.505 137.283 331.627 133.888 329.03 127.814H329.019C322.824 135.984 314.049 150.61 314.195 158.822ZM334.278 125.342C335.706 132.254 343.117 134.768 343.541 134.476C345.863 130.41 347.759 125.842 348.995 121.191L349.031 120.899L349.049 120.726C349.202 119.475 349.369 118.113 349.369 116.79C349.369 114.529 348.902 112.433 347.171 111.259C345.304 110.589 342.757 111.049 341.068 112.39C337.131 114.737 333.063 119.39 334.278 125.342ZM401.587 161.212L402.991 159.955C410.188 150.945 415.942 140.678 421.489 130.745C421.767 130.254 422.044 129.76 422.322 129.264C424.895 124.695 427.545 119.99 430.31 115.492C430.438 115.282 430.659 114.611 430.659 114.361C430.659 113.566 430.093 112.768 429.604 112.307C427.488 111.427 425.479 112.558 423.633 113.899C412.853 122.587 405.453 135.034 399.101 145.722L398.762 146.295L398.189 147.507L398.142 147.603C395.923 152.227 393.65 156.973 393.764 162.092C393.878 162.805 394.359 163.727 395.046 163.977C397.48 164.921 399.507 163.09 401.466 161.323L401.587 161.212Z" fill="white"/>
</svg>
