<svg width="360" height="150" viewBox="0 0 360 150" fill="none" xmlns="http://www.w3.org/2000/svg">
<g clip-path="url(#clip0_912_9448)">
<mask id="mask0_912_9448" style="mask-type:luminance" maskUnits="userSpaceOnUse" x="0" y="0" width="360" height="150">
<path d="M360 0H0V150H360V0Z" fill="white"/>
</mask>
<g mask="url(#mask0_912_9448)">
<path d="M90.5902 17.3862C92.1502 10.6341 88.4092 4.0053 82.2352 2.5804C76.0612 1.1555 69.7911 5.47409 68.231 12.2262C66.671 18.9784 70.4116 25.6072 76.5862 27.0321C82.7602 28.457 89.0302 24.1384 90.5902 17.3862Z" fill="white"/>
<path d="M177.664 17.383C179.223 10.6308 175.482 4.00248 169.308 2.57821C163.133 1.15395 156.864 5.47306 155.305 12.2252C153.746 18.9774 157.487 25.6057 163.661 27.0299C169.835 28.4542 176.105 24.1351 177.664 17.383Z" fill="white"/>
<path d="M56.549 97.455C70.2092 117.108 87.2342 127.544 113.72 127.544C143.099 127.544 164.43 114.25 176.837 96.918C184.718 101.131 187.334 105.872 187.334 111.038C187.334 125.913 159.665 149.999 117.706 149.999C81.4892 149.999 56.4821 129.366 49.3817 110.335C46.8212 103.475 50.6942 97.56 56.549 97.455Z" fill="white"/>
<path d="M360 91.4454C360 103.8 348.867 114.797 335.542 114.797C320.841 114.797 312.685 105.911 312.685 97.0156C312.685 88.1199 319.242 81.9129 327.285 84.9264C325.424 86.2816 324.829 87.9849 324.829 89.7594C324.829 92.2681 326.752 95.4031 330.806 95.4031C334.171 95.4031 337.337 92.5126 337.337 87.4734C337.337 79.9449 328.393 72.4184 322.727 62.7177C321.762 67.9395 319.678 72.763 316.409 77.3161C309.064 87.5439 298.472 95.7181 287.585 95.7181C282.292 95.7181 276.308 91.6719 276.308 84.3834C276.308 83.5704 276.353 82.7319 276.432 81.8769C269.765 89.9274 261.311 95.7189 253.064 95.7189C246.974 95.7189 241.466 91.7589 241.466 84.3834C241.466 75.3496 249.95 57.9324 249.95 45.6942C249.95 43.3104 249.272 40.5964 247.733 38.8411C250.217 35.6454 252.991 32.8574 258.712 32.8574C264.259 32.8574 269.471 36.7221 269.471 43.0254C269.471 52.0107 263.585 65.2278 263.585 72.862C263.585 75.1884 265.099 76.5541 267.278 76.5541C275.402 76.5541 284.633 57.2622 284.633 45.693C284.633 43.2294 283.849 40.3722 282.468 38.2509C284.951 35.055 288.376 32.8025 293.448 32.8025C298.344 32.8025 303.671 36.6446 303.671 42.4889C303.671 52.0715 298.213 66.9128 298.213 72.8525C298.213 74.9059 299.428 76.5541 302.044 76.5541C309.058 76.5541 318.179 60.805 318.179 47.62C318.179 47.62 318.184 47.4686 318.188 47.397C318.305 36.703 326.699 30.3997 334.849 30.3997C339.72 30.3997 342.887 32.508 344.13 34.8154C339.405 34.8154 337.064 39.3753 337.064 44.5005C337.06 61.1604 360 70.2541 360 91.4454ZM73.5525 32.8049C68.4805 32.8049 64.8521 35.092 62.1914 38.859C63.8224 40.9172 64.7387 43.6074 64.7387 47.8383C64.7387 56.133 56.4142 77.5089 56.4142 84.4524C56.4142 91.3974 62.3978 95.7189 67.6906 95.7189C72.252 95.7189 77.922 92.9004 81.1958 87.8724C78.936 85.4604 77.5673 81.3654 77.5673 76.8916C77.5673 69.826 83.775 52.5997 83.775 43.0183C83.775 37.1741 79.0042 32.8049 73.5525 32.8049ZM160.671 32.8049C155.599 32.8049 151.969 35.092 149.309 38.859C150.94 40.9172 151.856 43.6074 151.856 47.8383C151.856 56.133 143.533 77.5089 143.533 84.4524C143.533 91.3974 149.516 95.7189 154.809 95.7189C159.37 95.7189 165.04 92.9004 168.314 87.8724C166.055 85.4604 164.686 81.3654 164.686 76.8916C164.686 69.826 170.894 52.5997 170.894 43.0183C170.893 37.1741 166.123 32.8049 160.671 32.8049ZM238.991 57.5675C238.991 77.5486 222.661 95.7189 201.922 95.7189C187.612 95.7189 174.55 88.0351 174.55 70.9565C174.55 50.9756 190.886 32.8049 211.619 32.8049C225.871 32.8061 238.991 40.4903 238.991 57.5675ZM218.19 65.6357C219.989 55.4378 216.821 46.9928 210.578 45.8922C204.337 44.7927 197.167 52.6892 195.367 62.8871C193.584 73.0003 197.279 81.6264 203.521 82.7259C209.763 83.8269 216.391 75.8334 218.19 65.6357ZM123.798 55.0717C125.32 57.1371 127.869 58.6789 131.735 58.6789C137.323 58.6789 141.589 53.4988 141.589 45.6596C141.589 39.2597 135.769 32.8049 124.682 32.8049C105.133 32.8049 87.4335 51.4371 87.4335 71.7387C87.4335 86.1234 96.9082 95.7204 112.339 95.7204C127.285 95.7204 138.258 86.3431 138.258 77.2374C138.258 74.8248 136.406 73.0587 133.287 72.6629C129.968 77.9356 124.523 80.5891 119.461 80.5891C113.188 80.5891 107.963 74.9262 107.963 67.267C107.963 57.0941 115.851 45.8922 122.481 45.8922C125.044 45.8922 126.322 47.4829 126.322 49.8988C126.322 51.9177 125.667 53.5215 123.798 55.0717ZM45.0746 70.9004C42.3113 74.3263 34.347 76.0269 22.0958 74.5314C30.8368 52.6915 36.6904 31.8867 36.6904 16.4897C36.6916 7.83956 32.3091 2.3125 24.4058 2.3125C19.7263 2.3125 14.6876 4.33014 11.2526 9.44696C13.5445 12.0883 14.3236 16.9368 14.3236 21.1403C14.3236 51.7924 0 73.3283 0 85.9291C0 91.1236 3.01269 93.9361 6.23536 95.6641C8.54055 93.7756 12.5435 92.4436 15.3605 92.4436C21.8309 92.4436 31.7722 96.7569 42.3005 96.5881C48.9284 96.4824 52.5103 89.5719 52.4255 84.2821C52.3528 79.7236 49.698 74.0986 45.0746 70.9004Z" fill="white"/>
</g>
</g>
<defs>
<clipPath id="clip0_912_9448">
<rect width="360" height="150" fill="white"/>
</clipPath>
</defs>
</svg>
