<svg width="343" height="75" viewBox="0 0 343 75" fill="none" xmlns="http://www.w3.org/2000/svg">
<g clip-path="url(#clip0_912_10767)">
<path fill-rule="evenodd" clip-rule="evenodd" d="M71.0201 20.7059C75.5223 29.4323 76.6021 39.9085 73.18 49.9358C66.5086 69.4823 45.2547 79.9198 25.7082 73.2483C17.2654 70.3667 10.5217 64.7642 6.12259 57.754C11.9421 54.9766 31.751 45.2541 35.6544 42.9662C38.8613 41.0973 43.636 38.3426 43.636 38.3426L45.6612 42.4704L48.7535 62.812L51.1155 61.4482L52.687 33.036C57.4591 30.052 61.6646 27.1488 66.0664 24.1105L66.0675 24.1094C67.6795 22.9968 69.318 21.8657 71.0201 20.7059ZM69.2648 17.6612C69.264 17.6612 69.2637 17.6608 69.2629 17.6608C67.4063 18.5556 65.6067 19.4095 63.8361 20.2492C59.0037 22.542 54.3869 24.7324 49.4171 27.3732L24.0258 14.528L21.6642 15.8914L37.7339 28.7404L40.2921 32.5514L40.2962 32.5581C40.2962 32.5581 35.5233 35.3158 32.3011 37.1586C28.3684 39.3952 10.0446 51.6881 4.72942 55.3395C0.081574 46.5472 -1.07026 35.9314 2.39567 25.7768C9.06713 6.23032 30.3206 -4.20726 49.8671 2.46394C58.1908 5.30501 64.8623 10.7899 69.2648 17.6612Z" fill="white"/>
<path fill-rule="evenodd" clip-rule="evenodd" d="M335.956 29.5344V25.4289H343.192V62.8273H335.747V58.58C333.092 61.6727 329.357 63.7169 323.957 63.7169C313.327 63.7169 306.494 55.2432 306.494 44.1502C306.494 33.1347 313.327 24.584 323.957 24.584C328.683 24.584 333.063 26.3665 335.956 29.5344ZM335.457 36.8739C333.253 33.613 329.527 31.6061 325.145 31.6061C318.564 31.6061 314.03 37.1788 314.03 44.1502C314.03 51.1217 318.397 56.8612 325.145 56.8612C329.653 56.8612 333.301 54.2922 335.457 50.962V36.8739Z" fill="white"/>
<path d="M291.512 15.801C291.512 12.9272 293.866 10.6035 296.77 10.6035C299.583 10.6035 301.968 12.9883 301.968 15.801C301.968 18.7058 299.644 21.06 296.77 21.06C293.866 21.06 291.512 18.7058 291.512 15.801Z" fill="white"/>
<path d="M292.873 25.4277H300.608V62.8261H292.873V25.4277Z" fill="white"/>
<path fill-rule="evenodd" clip-rule="evenodd" d="M277.754 11.5625H285.323V62.8275H277.878V58.5799C275.223 61.6729 271.488 63.7171 266.088 63.7171C255.458 63.7171 248.625 55.2434 248.625 44.1505C248.625 33.135 255.458 24.5842 266.088 24.5842C270.636 24.5842 274.864 26.235 277.754 29.1829V11.5625ZM277.587 36.8742C275.384 33.6133 271.658 31.6063 267.276 31.6063C260.695 31.6063 256.161 37.179 256.161 44.1505C256.161 51.1219 260.528 56.8614 267.276 56.8614C271.785 56.8614 275.433 54.2924 277.587 50.9623V36.8742Z" fill="white"/>
<path fill-rule="evenodd" clip-rule="evenodd" d="M226.833 63.7776C230.21 63.7698 233.276 63.1378 236.029 61.8816C238.8 60.6175 241.231 58.7945 243.322 56.4123L238.702 51.4899L238.691 51.501C237.157 53.1309 235.431 54.3801 233.509 55.3895C231.604 56.3416 229.432 56.8206 226.987 56.8206C221.212 56.8206 216.185 52.4692 215.458 46.7409H244.54C244.546 46.6575 244.552 46.5741 244.558 46.4907C244.625 45.5982 244.659 44.7075 244.659 43.8086C244.659 33.1277 236.996 24.459 226.393 24.459C215.711 24.459 207.662 32.8955 207.662 44.1183C207.662 55.5652 215.7 63.7661 226.833 63.7776ZM215.643 40.3508H236.753C236.008 35.1492 231.73 31.2697 226.233 31.2697C223.48 31.2697 220.963 32.4622 219.06 34.2365C217.233 35.9394 215.988 38.1644 215.643 40.3508Z" fill="white"/>
<path fill-rule="evenodd" clip-rule="evenodd" d="M174.833 59.0772V76.6976H167.264V25.4325H174.708V29.6798C177.364 26.5871 181.098 24.543 186.498 24.543C197.129 24.543 203.962 33.0167 203.962 44.1092C203.962 55.1251 197.129 63.6758 186.498 63.6758C181.951 63.6758 177.723 62.0247 174.833 59.0772ZM174.999 51.3855C177.203 54.6468 180.929 56.6534 185.311 56.6534C191.892 56.6534 196.425 51.0807 196.425 44.1092C196.425 37.1378 192.058 31.3987 185.311 31.3987C180.802 31.3987 177.154 33.9677 174.999 37.2978V51.3855Z" fill="white"/>
<path d="M140.426 43.599L127.235 25.4297H136.572L145.371 37.8235L154.17 25.4297H163.383L150.134 43.6783L163.997 62.8266H154.649L145.272 49.5909L135.896 62.8266H126.506L140.426 43.599Z" fill="white"/>
<path d="M102.314 40.8888H121.741V33.5507H102.314V20.2189H123.423V12.8809H93.8613V62.8279H123.575V55.4902H102.314V40.8888Z" fill="white"/>
</g>
<defs>
<clipPath id="clip0_912_10767">
<rect width="343" height="75" fill="white"/>
</clipPath>
</defs>
</svg>
