<svg width="70" height="17" viewBox="0 0 70 17" fill="none" xmlns="http://www.w3.org/2000/svg">
<g clip-path="url(#clip0_1069_8858)">
<path fill-rule="evenodd" clip-rule="evenodd" d="M38.8177 10.8065C38.8177 10.9397 38.7956 11.0951 38.7735 11.206C38.5748 11.783 38.0449 12.1603 37.4266 12.1603C36.8746 12.1603 36.4551 11.8496 36.4551 11.1838C36.4551 10.1629 37.5591 9.89662 38.8398 9.89662V10.8065H38.8177ZM40.8049 9.03109C40.8049 7.3666 40.0984 5.87965 37.6916 5.87965C36.4551 5.87965 35.4614 6.23474 34.9315 6.54545L35.329 7.89923C35.9472 7.54414 36.6317 7.3444 37.3383 7.32221C38.5748 7.32221 38.7735 8.0102 38.7735 8.45406V8.56503C36.1018 8.56503 34.4237 9.49714 34.4237 11.3836C34.4237 12.5376 35.2848 13.6251 36.7863 13.6251C37.6916 13.6251 38.4644 13.27 38.9281 12.6708H38.9723C38.9723 12.6708 39.2814 13.958 40.9595 13.4697C40.8712 12.9371 40.827 12.3601 40.827 11.6943L40.8049 9.03109ZM0 3.59375L2.03142 11.9384C2.36262 13.2922 2.93672 13.8026 4.61485 13.4697L5.69679 9.03109C5.96176 7.92143 6.16049 7.14466 6.33713 6.01281H6.35921C6.4917 7.14466 6.66834 7.92143 6.88915 9.03109L7.55156 12.1159C7.79445 13.1812 8.41271 13.847 10.0688 13.4697L12.6522 3.61594H10.5545L9.6713 7.87704C9.42842 9.11986 9.20761 10.0964 9.05305 11.2282C8.89848 10.0964 8.69976 9.16425 8.45687 7.96581L7.55156 3.61594H5.36559L4.37196 7.85485C4.10699 9.14205 3.84202 10.1851 3.66538 11.2726H3.6433C3.46665 10.2517 3.24585 8.94231 3.00296 7.69949L2.20806 3.59375H0ZM16.4942 10.8065C16.4942 10.9397 16.4942 11.0951 16.45 11.206C16.2513 11.783 15.7214 12.1603 15.1031 12.1603C14.5511 12.1603 14.1316 11.8496 14.1316 11.1838C14.1316 10.1629 15.2356 9.89662 16.5163 9.89662V10.8065H16.4942ZM18.5035 9.03109C18.5035 7.3666 17.797 5.87965 15.3902 5.87965C14.1537 5.87965 13.16 6.23474 12.6301 6.54545L13.0276 7.89923C13.6458 7.54414 14.3303 7.3444 15.0369 7.32221C16.2734 7.32221 16.4721 8.0102 16.4721 8.45406V8.56503C13.8004 8.56503 12.1222 9.49714 12.1222 11.3836C12.1222 12.5376 12.9834 13.6251 14.4849 13.6251C15.3902 13.6251 16.163 13.27 16.6267 12.6708H16.6709C16.6709 12.6708 16.98 13.958 18.6581 13.4697C18.5698 12.9371 18.5256 12.3601 18.5256 11.6943L18.5035 9.03109ZM21.5727 11.3614V3.59375H19.5855V13.4475H21.5727V11.3614ZM46.9213 3.61594V10.8731C46.9213 11.8718 47.0979 12.582 47.5174 13.0037C47.8707 13.381 48.4448 13.6251 49.1293 13.6251C49.7255 13.6251 50.2996 13.5141 50.5646 13.4031L50.5425 11.8274C50.3438 11.894 50.1009 11.9162 49.7918 11.9162C49.1073 11.9162 48.8864 11.4945 48.8864 10.5846V7.83265H50.6308V5.94623H48.8864V3.59375L46.9213 3.61594ZM41.7765 6.0572V13.4697H43.83V9.67469C43.83 9.47495 43.8521 9.2974 43.8741 9.11986C44.0287 8.3209 44.6249 7.81046 45.5081 7.81046C45.751 7.81046 45.9056 7.83265 46.1043 7.85485V5.90184C45.9497 5.87965 45.7952 5.85746 45.6627 5.85746C44.8899 5.85746 44.0287 6.34571 43.6533 7.43318H43.6092V6.035L41.7765 6.0572ZM22.743 6.0572V13.4697H24.7303V9.11986C24.7303 8.92012 24.7524 8.69819 24.8186 8.52064C24.9732 8.07678 25.3927 7.56633 26.033 7.56633C26.85 7.56633 27.2254 8.25432 27.2254 9.23083V13.4475H29.2347V9.05328C29.2347 8.85354 29.2568 8.60942 29.323 8.45406C29.4776 7.92143 29.9855 7.54414 30.5375 7.54414C31.3545 7.54414 31.7519 8.20994 31.7519 9.38618V13.4475H33.7612V9.09767C33.7612 6.81177 32.591 5.87965 31.2882 5.87965C30.692 5.87965 30.2504 6.035 29.8309 6.27913C29.4776 6.50106 29.1685 6.81177 28.9035 7.21124H28.8814C28.5502 6.39009 27.7332 5.85746 26.85 5.87965C25.9668 5.83526 25.1277 6.27913 24.7082 7.05589H24.6861V6.0572H22.743Z" fill="white"/>
<path fill-rule="evenodd" clip-rule="evenodd" d="M61.3845 5.72585C61.7819 5.72585 62.1131 5.50392 62.1573 5.25979L62.5327 0.798956C62.5327 0.355091 62.0248 0 61.3845 0C60.7441 0 60.2363 0.355091 60.2363 0.798956L60.6337 5.25979C60.6558 5.52611 60.987 5.72585 61.3845 5.72585ZM58.9777 7.12402C59.1764 6.76893 59.1543 6.39164 58.9556 6.2141L55.3123 3.66188C54.937 3.43995 54.3629 3.70627 54.0537 4.2611C53.7225 4.81593 53.7888 5.45953 54.1641 5.65927L58.2049 7.54569C58.4478 7.63446 58.8011 7.45692 58.9777 7.12402ZM63.7692 7.10183C63.9679 7.45692 64.2991 7.63447 64.5641 7.5235L68.5828 5.63708C68.9581 5.41514 69.0244 4.79373 68.6932 4.2389C68.362 3.68407 67.8099 3.41775 67.4346 3.63969L63.7913 6.2141C63.5925 6.39164 63.5705 6.76893 63.7692 7.10183ZM61.3845 11.2742C61.7819 11.2742 62.1131 11.4961 62.1573 11.7402L62.5327 16.201C62.5327 16.6449 62.0248 17 61.3845 17C60.7441 17 60.2363 16.6449 60.2363 16.201L60.6337 11.7402C60.6558 11.4739 60.987 11.2742 61.3845 11.2742ZM63.7692 9.89817C63.9679 9.54308 64.2991 9.36553 64.5641 9.45431L68.5828 11.3407C68.9581 11.5627 69.0244 12.1841 68.6932 12.7389C68.362 13.2937 67.8099 13.5601 67.4346 13.3381L63.7913 10.7859C63.5925 10.6305 63.5705 10.2311 63.7692 9.89817ZM58.9777 9.89817C59.1764 10.2311 59.1543 10.6305 58.9556 10.8081L55.3123 13.3603C54.937 13.5822 54.3629 13.3159 54.0537 12.7611C53.7225 12.2063 53.7888 11.5849 54.1641 11.3629L58.2049 9.4765C58.4478 9.36554 58.8011 9.54308 58.9777 9.89817ZM69.4439 12.9608H69.4881C69.5322 12.9608 69.5764 12.9386 69.5764 12.9164C69.5764 12.8721 69.5543 12.8721 69.5101 12.8721H69.466V12.9608H69.4439ZM69.4439 13.1606H69.3556V12.8055H69.4881C69.5543 12.8055 69.5764 12.8055 69.6205 12.8277C69.6426 12.8499 69.6647 12.8721 69.6647 12.8943C69.6647 12.9386 69.6426 12.9608 69.5985 12.983C69.6426 13.0052 69.6647 13.0274 69.6647 13.0718C69.6647 13.1384 69.6868 13.1384 69.6868 13.1606H69.5985C69.5764 13.1384 69.5764 13.1162 69.5764 13.0718C69.5764 13.0274 69.5543 13.0274 69.5101 13.0274H69.466L69.4439 13.1606ZM69.4881 12.6945C69.3335 12.6945 69.2231 12.8277 69.2231 12.983C69.2231 13.1384 69.3335 13.2715 69.4881 13.2715C69.6426 13.2715 69.753 13.1384 69.753 12.983C69.7751 12.8277 69.6426 12.6945 69.4881 12.6945ZM69.4881 12.6279C69.6868 12.6279 69.8414 12.7833 69.8414 12.983C69.8414 13.1828 69.6868 13.3381 69.4881 13.3381C69.2893 13.3381 69.1127 13.1828 69.1127 12.983C69.1348 12.7833 69.2893 12.6279 69.4881 12.6279Z" fill="white"/>
</g>
<defs>
<clipPath id="clip0_1069_8858">
<rect width="69.863" height="17" fill="white"/>
</clipPath>
</defs>
</svg>
