<svg width="121" height="25" viewBox="0 0 121 25" fill="none" xmlns="http://www.w3.org/2000/svg">
<path fill-rule="evenodd" clip-rule="evenodd" d="M4.82702 24.4299V16.4246L0 0.276042H3.99358L6.8759 11.2833H6.94536L9.82768 0.276042H13.474L8.64697 16.4246V24.4299H4.82702ZM17.9885 5.83144V18.8745C17.9885 20.5998 18.7525 21.2554 19.9679 21.2554C21.1833 21.2554 21.9473 20.5998 21.9473 18.8745V5.83144C21.9473 4.10616 21.1833 3.45056 19.9679 3.45056C18.7525 3.45056 17.9885 4.10616 17.9885 5.83144ZM14.1685 18.633V6.07297C14.1685 2.20835 16.2174 0 19.9679 0C23.7184 0 25.7673 2.20835 25.7673 6.07297V18.633C25.7673 22.4976 23.7184 24.706 19.9679 24.706C16.2174 24.706 14.1685 22.4976 14.1685 18.633ZM28.0592 0.276042H31.8792V18.909C31.8792 20.6343 32.6432 21.2554 33.8586 21.2554C35.0741 21.2554 35.8381 20.6343 35.8381 18.909V0.276042H39.4496V18.6675C39.4496 22.5321 37.5049 24.7405 33.7544 24.7405C30.0039 24.7405 28.0592 22.5321 28.0592 18.6675V0.276042ZM53.9307 24.4299H50.0413C49.8329 23.8088 49.694 23.4293 49.694 21.4624V17.6668C49.694 15.424 48.93 14.5958 47.1937 14.5958H45.8741V24.4299H42.0541V0.276042H47.8188C51.7776 0.276042 53.4793 2.10484 53.4793 5.83144V7.72924C53.4793 10.2136 52.6805 11.8009 50.9789 12.5945V12.6635C52.8889 13.4572 53.514 15.2515 53.514 17.7704V21.497C53.514 22.6701 53.5487 23.5328 53.9307 24.4299ZM47.7146 3.7266H45.8741V11.1453H47.3673C48.7911 11.1453 49.6593 10.5242 49.6593 8.59188V6.211C49.6593 4.48572 49.069 3.7266 47.7146 3.7266ZM55.5281 6.07297C55.5281 2.20835 57.4381 0 61.1539 0C64.8696 0 66.7796 2.20835 66.7796 6.07297V6.8321H63.168V5.83144C63.168 4.10616 62.4735 3.45056 61.2581 3.45056C60.0426 3.45056 59.3481 4.10616 59.3481 5.83144C59.3481 7.59122 60.1121 8.90242 62.6124 11.0763C65.8073 13.8712 66.8143 15.8725 66.8143 18.633C66.8143 22.4976 64.8696 24.706 61.1192 24.706C57.3687 24.706 55.424 22.4976 55.424 18.633V17.1492H59.0355V18.8745C59.0355 20.5998 59.7995 21.2209 61.015 21.2209C62.2304 21.2209 62.9944 20.5998 62.9944 18.8745C62.9944 17.1147 62.2304 15.8035 59.7301 13.6297C56.5352 10.8347 55.5281 8.83342 55.5281 6.07297ZM67.8909 3.7266V0.276042H79.698V3.7266H75.7044V24.4299H71.8845V3.7266H67.8909ZM84.8723 5.83144V18.8745C84.8723 20.5998 85.6363 21.2554 86.8517 21.2554C88.0671 21.2554 88.8311 20.5998 88.8311 18.8745V5.83144C88.8311 4.10616 88.0671 3.45056 86.8517 3.45056C85.6363 3.45056 84.8723 4.10616 84.8723 5.83144ZM81.0523 18.633V6.07297C81.0523 2.20835 83.1012 0 86.8517 0C90.6022 0 92.6511 2.20835 92.6511 6.07297V18.633C92.6511 22.4976 90.6022 24.706 86.8517 24.706C83.1012 24.706 81.0523 22.4976 81.0523 18.633ZM106.993 24.4299H103.104C102.895 23.8088 102.757 23.4293 102.757 21.4624V17.6668C102.757 15.424 101.993 14.5958 100.256 14.5958H98.9366V24.4299H95.1167V0.276042H100.881C104.84 0.276042 106.542 2.10484 106.542 5.83144V7.72924C106.542 10.2136 105.743 11.8009 104.041 12.5945V12.6635C105.951 13.4572 106.577 15.2515 106.577 17.7704V21.497C106.577 22.6701 106.611 23.5328 106.993 24.4299ZM100.777 3.7266H98.9366V11.1453H100.43C101.854 11.1453 102.722 10.5242 102.722 8.59188V6.211C102.722 4.48572 102.131 3.7266 100.777 3.7266ZM112.306 24.4299V16.4246L107.479 0.276042H111.473L114.355 11.2833H114.425L117.307 0.276042H120.953L116.126 16.4246V24.4299H112.306Z" fill="#030A21"/>
</svg>
